<?xml version="1.0" encoding="utf-8"?>
<!-- Generator: Adobe Illustrator 27.5.0, SVG Export Plug-In . SVG Version: 6.00 Build 0)  -->
<svg version="1.1" xmlns="http://www.w3.org/2000/svg" xmlns:xlink="http://www.w3.org/1999/xlink" x="0px" y="0px"
	 viewBox="0 0 500 500" style="enable-background:new 0 0 500 500;" xml:space="preserve">
<g id="Background_Complete">
	<g>
		<g>
			<g>
				<rect x="95.125" y="322.648" style="fill:#E0E0E0;" width="68.788" height="130.551"/>
				<rect x="131.66" y="322.648" style="fill:#EBEBEB;" width="32.253" height="130.551"/>
			</g>
			<g>
				<rect x="109.548" y="334.932" style="fill:#F5F5F5;" width="6.185" height="15.027"/>
				<rect x="109.548" y="393.744" style="fill:#F5F5F5;" width="6.185" height="15.027"/>
				<g>
					<path style="fill:#F5F5F5;" d="M131.66,355.857c0,0.13-8.179,0.234-18.267,0.234c-10.091,0-18.268-0.105-18.268-0.234
						c0-0.129,8.177-0.234,18.268-0.234C123.48,355.622,131.66,355.727,131.66,355.857z"/>
				</g>
			</g>
			<g>
				<rect x="109.548" y="364.561" style="fill:#F5F5F5;" width="6.185" height="15.027"/>
				<g>
					<path style="fill:#F5F5F5;" d="M131.66,385.486c0,0.129-8.179,0.234-18.267,0.234c-10.091,0-18.268-0.105-18.268-0.234
						c0-0.13,8.177-0.234,18.268-0.234C123.48,385.251,131.66,385.356,131.66,385.486z"/>
				</g>
			</g>
			<rect x="138.509" y="334.932" style="fill:#E0E0E0;" width="6.185" height="15.027"/>
			<rect x="151.927" y="334.932" style="fill:#E0E0E0;" width="6.185" height="15.027"/>
			<rect x="138.509" y="363.446" style="fill:#E0E0E0;" width="6.185" height="15.027"/>
			<rect x="151.927" y="363.446" style="fill:#E0E0E0;" width="6.185" height="15.027"/>
			<rect x="138.509" y="391.96" style="fill:#E0E0E0;" width="6.185" height="15.027"/>
			<rect x="151.927" y="391.96" style="fill:#E0E0E0;" width="6.185" height="15.027"/>
			<rect x="89.954" y="319.49" style="fill:#E0E0E0;" width="79.131" height="3.272"/>
			<g>
				<path style="fill:#EBEBEB;" d="M164.393,323.07c0,0.129-15.375,0.234-34.336,0.234c-18.968,0-34.34-0.105-34.34-0.234
					s15.372-0.234,34.34-0.234C149.019,322.836,164.393,322.941,164.393,323.07z"/>
			</g>
		</g>
		<g>
			<g>
				<rect x="49.919" y="371.609" style="fill:#EBEBEB;" width="61.582" height="81.225"/>
				<rect x="82.626" y="371.609" style="fill:#E0E0E0;" width="28.875" height="81.225"/>
			</g>
			<g>
				<rect x="62.831" y="382.606" style="fill:#F5F5F5;" width="5.537" height="13.453"/>
				<rect x="62.831" y="435.257" style="fill:#F5F5F5;" width="5.537" height="13.453"/>
				<g>
					<path style="fill:#F5F5F5;" d="M82.626,401.338c0,0.151-7.322,0.274-16.353,0.274c-9.034,0-16.355-0.123-16.355-0.274
						c0-0.151,7.321-0.274,16.355-0.274C75.304,401.065,82.626,401.187,82.626,401.338z"/>
				</g>
			</g>
			<g>
				<rect x="62.831" y="409.131" style="fill:#F5F5F5;" width="5.537" height="13.453"/>
				<g>
					<path style="fill:#F5F5F5;" d="M82.626,427.863c0,0.151-7.322,0.274-16.353,0.274c-9.034,0-16.355-0.123-16.355-0.274
						c0-0.151,7.321-0.274,16.355-0.274C75.304,427.59,82.626,427.712,82.626,427.863z"/>
				</g>
			</g>
			<rect x="88.758" y="382.606" style="fill:#F5F5F5;" width="5.537" height="13.453"/>
			<rect x="100.771" y="382.606" style="fill:#F5F5F5;" width="5.537" height="13.453"/>
			<rect x="88.758" y="408.133" style="fill:#F5F5F5;" width="5.537" height="13.453"/>
			<rect x="100.771" y="408.133" style="fill:#F5F5F5;" width="5.537" height="13.453"/>
			<rect x="88.758" y="433.659" style="fill:#F5F5F5;" width="5.537" height="13.453"/>
			<rect x="100.771" y="433.659" style="fill:#F5F5F5;" width="5.537" height="13.453"/>
			<rect x="45.289" y="368.781" style="fill:#E0E0E0;" width="70.841" height="2.929"/>
			<g>
				<path style="fill:#EBEBEB;" d="M111.931,371.986c0,0.151-13.764,0.274-30.739,0.274c-16.981,0-30.742-0.123-30.742-0.274
					c0-0.151,13.761-0.274,30.742-0.274C98.167,371.713,111.931,371.835,111.931,371.986z"/>
			</g>
		</g>
	</g>
	<g>
		<g>
			<path style="fill:#EBEBEB;" d="M82.467,66.268c0,0-9.8,2.953-0.756,24.015c9.044,21.061,15.576,31.625,15.576,31.625
				s1.53,4.852-2.5,5.322c-4.03,0.471-12.704-1.508-14.8,3.246c-2.174,4.931,1.18,9.94,8.344,14.615
				c7.164,4.674,22.484,15.492,23.866,16.475c1.356,0.965,2.629,3.26-0.065,4.021c-2.694,0.761-22.548,1.512-21.628,10.912
				c0.92,9.4,23.018,19.143,25.413,20.254c2.395,1.111,2.914,2.192,2.624,3.528c-0.29,1.336-6.987,0.959-12.625,1.404
				c-5.638,0.445-12.098,1.949-11.112,7.328c0.985,5.379,13.662,17.382,46.02,22.733l15.156,1.498l9.116-12.284
				c17.907-27.478,17.615-44.933,14.314-49.292c-3.301-4.359-8.773-0.611-12.909,3.246c-4.136,3.858-8.381,9.051-9.562,8.363
				c-1.181-0.688-1.628-1.801-0.83-4.318c0.798-2.517,8.536-25.394,2.226-32.421c-6.311-7.027-20.273,7.109-22.654,8.581
				c-2.38,1.473-3.214-1.015-3.009-2.668c0.208-1.683,2.577-20.287,3.967-28.727c1.391-8.44-0.039-14.297-5.143-16.023
				c-4.922-1.665-9.32,6.069-12.389,8.723c-3.069,2.654-5.613-1.751-5.613-1.751s-3.379-11.951-12.804-32.845
				c-9.425-20.894-18.417-15.485-18.417-15.485"/>
		</g>
		<g>
			<g>
				<path style="fill:#E0E0E0;" d="M156.529,236.868c-6.861-15.372-18.598-42.897-28.797-66.477
					c-10.195-23.572-19.446-44.905-26.229-60.31c-3.394-7.686-6.143-13.911-8.052-18.235c-0.943-2.14-1.678-3.808-2.186-4.96
					c-0.239-0.556-0.424-0.986-0.558-1.295c-0.123-0.293-0.175-0.448-0.175-0.448s0.081,0.142,0.219,0.428
					c0.143,0.304,0.343,0.729,0.6,1.276c0.527,1.144,1.289,2.8,2.267,4.924c1.964,4.278,4.762,10.489,8.19,18.175
					c6.862,15.372,16.161,36.685,26.357,60.257c10.199,23.58,21.886,51.124,28.669,66.529"/>
			</g>
		</g>
		<g>
			<g>
				<path style="fill:#E0E0E0;" d="M92.009,133.733c0.013-0.03,0.383,0.102,1.04,0.365c0.659,0.26,1.599,0.666,2.757,1.177
					c2.313,1.027,5.472,2.526,8.927,4.244c3.401,1.706,6.477,3.249,8.83,4.43c1.063,0.525,1.961,0.969,2.683,1.325
					c0.635,0.31,0.98,0.496,0.968,0.526s-0.383-0.099-1.043-0.358c-0.658-0.263-1.599-0.668-2.752-1.191
					c-2.303-1.05-5.441-2.59-8.896-4.308c-3.412-1.681-6.497-3.201-8.858-4.365c-1.067-0.52-1.967-0.959-2.691-1.312
					C92.34,133.951,91.996,133.763,92.009,133.733z"/>
			</g>
		</g>
		<g>
			<g>
				<path style="fill:#E0E0E0;" d="M118.316,144.898c-0.12-0.053,2.685-6.701,6.264-14.847c3.58-8.149,6.578-14.711,6.698-14.658
					c0.12,0.052-2.685,6.699-6.265,14.848C121.434,138.387,118.435,144.95,118.316,144.898z"/>
			</g>
		</g>
		<g>
			<g>
				<path style="fill:#E0E0E0;" d="M132.342,181.808c-0.024-0.022,0.219-0.34,0.679-0.897c0.526-0.628,1.183-1.412,1.963-2.343
					c1.654-1.98,3.926-4.724,6.323-7.844c2.404-3.115,4.482-6.01,5.969-8.118c0.701-0.992,1.292-1.827,1.764-2.496
					c0.42-0.587,0.665-0.904,0.693-0.886c0.027,0.018-0.166,0.368-0.539,0.987c-0.374,0.619-0.93,1.504-1.642,2.583
					c-1.419,2.16-3.46,5.094-5.871,8.218c-2.403,3.129-4.723,5.847-6.445,7.774c-0.865,0.96-1.573,1.729-2.078,2.246
					C132.656,181.553,132.366,181.83,132.342,181.808z"/>
			</g>
		</g>
		<g>
			<g>
				<path style="fill:#E0E0E0;" d="M106.325,176.947c0.006-0.032,0.374,0,1.036,0.086c0.761,0.111,1.695,0.248,2.796,0.409
					c2.357,0.366,5.609,0.904,9.195,1.526c3.587,0.623,6.83,1.213,9.173,1.663c1.091,0.22,2.017,0.406,2.77,0.557
					c0.652,0.142,1.01,0.236,1.005,0.268c-0.006,0.032-0.374,0-1.036-0.086c-0.76-0.111-1.694-0.248-2.796-0.409
					c-2.358-0.366-5.609-0.904-9.196-1.527c-3.586-0.623-6.828-1.212-9.171-1.663c-1.091-0.219-2.017-0.406-2.771-0.557
					C106.678,177.072,106.32,176.979,106.325,176.947z"/>
			</g>
		</g>
		<g>
			<g>
				<path style="fill:#E0E0E0;" d="M114.569,211.105c0.005-0.032,0.477,0.013,1.325,0.124c0.934,0.133,2.139,0.305,3.585,0.511
					c3.024,0.452,7.196,1.109,11.8,1.863c4.605,0.754,8.769,1.463,11.779,2c1.437,0.266,2.633,0.488,3.561,0.66
					c0.839,0.166,1.301,0.273,1.295,0.305c-0.005,0.032-0.477-0.014-1.325-0.124c-0.934-0.133-2.139-0.305-3.585-0.511
					c-3.024-0.452-7.197-1.109-11.802-1.863c-4.603-0.754-8.767-1.463-11.777-2c-1.436-0.266-2.633-0.488-3.561-0.659
					C115.025,211.244,114.563,211.137,114.569,211.105z"/>
			</g>
		</g>
		<g>
			<g>
				<path style="fill:#E0E0E0;" d="M147.154,216.213c-0.025-0.021,0.272-0.432,0.831-1.158c0.614-0.79,1.415-1.819,2.381-3.06
					c2.007-2.586,4.767-6.168,7.701-10.208c2.941-4.037,5.506-7.761,7.345-10.469c0.884-1.301,1.618-2.38,2.18-3.207
					c0.518-0.755,0.818-1.165,0.845-1.147c0.028,0.018-0.219,0.461-0.69,1.247c-0.471,0.786-1.169,1.913-2.056,3.292
					c-1.769,2.758-4.295,6.519-7.242,10.563c-2.939,4.047-5.745,7.603-7.822,10.138c-1.042,1.265-1.895,2.28-2.5,2.968
					C147.524,215.862,147.179,216.233,147.154,216.213z"/>
			</g>
		</g>
	</g>
	<g>
		<g>
			<g>
				<g>
					<path style="fill:#F5F5F5;" d="M374.8,275.764c-20.257-14.152-24.853-40.421-24.051-64.035
						c0.133-3.941-0.299-8.097,1.575-11.556c1.876-3.457,6.25-5.821,9.779-4.16c2.927,1.378,4.203,4.783,5.841,7.599
						c2.178,3.747,5.424,6.847,9.244,8.829c2.51,1.302,5.615,2.099,8.093,0.732c3.4-1.876,3.801-6.573,3.776-10.494
						c-0.046-7.307-0.091-14.614-0.137-21.919c-0.024-3.92-0.036-7.923,1.183-11.643c1.219-3.721,3.913-7.177,7.642-8.222
						c3.73-1.044,8.341,1.106,9.129,4.943c0.328,1.597,0.003,3.255,0.111,4.881c0.109,1.628,0.867,3.428,2.413,3.881
						c1.565,0.46,3.133-0.652,4.305-1.799c4.046-3.958,6.792-9.057,9.358-14.128c2.566-5.071,5.057-10.262,8.728-14.579
						c3.671-4.317,8.75-7.738,14.364-8.057c5.615-0.318,11.597,3.147,13.015,8.659c1.423,5.527-1.802,11.134-5.31,15.608
						c-5.205,6.638-11.363,12.507-18.22,17.367c-1.236,0.877-2.575,1.825-3.048,3.277c-0.852,2.614,1.625,5.209,4.205,6.068
						c2.922,0.973,6.093,0.67,9.149,1.03c3.057,0.36,6.368,1.708,7.525,4.597c1.606,4.007-1.745,8.207-5.043,10.958
						c-6.602,5.509-14.142,9.86-22.185,12.807c-2.884,1.055-5.919,1.981-8.244,4.007c-2.326,2.027-3.729,5.55-2.324,8.311
						c1.406,2.765,5.012,3.648,8.033,3.087c3.019-0.559,5.724-2.2,8.603-3.286c5.387-2.033,12.344-1.662,15.795,2.994
						c2.268,3.061,2.468,7.322,1.32,10.97c-1.146,3.648-3.473,6.791-5.943,9.689c-8.634,10.13-19.688,18.286-32.186,22.619
						C398.8,279.133,387.22,280.306,374.8,275.764"/>
				</g>
			</g>
		</g>
		<g>
			<g>
				<g>
					<g>
						<path style="fill:#E0E0E0;" d="M374.49,293.27c0.855-9.354,2.907-20.402,6.405-32.309c3.475-11.917,8.368-24.663,13.944-37.82
							c1.406-3.283,2.795-6.528,4.164-9.726c1.374-3.189,2.737-6.352,4.26-9.362c3.022-6.036,6.387-11.609,9.748-16.799
							c3.359-5.194,6.736-10,9.925-14.47c3.201-4.466,6.263-8.572,9.214-12.195c5.88-7.272,11.307-12.564,15.181-16.045
							c1.934-1.748,3.478-3.054,4.537-3.925c0.509-0.414,0.909-0.739,1.21-0.984c0.275-0.218,0.42-0.325,0.428-0.315
							c0.009,0.01-0.12,0.136-0.38,0.373c-0.289,0.258-0.675,0.601-1.164,1.038c-1.027,0.907-2.541,2.247-4.443,4.023
							c-3.81,3.541-9.161,8.871-14.973,16.162c-2.917,3.633-5.948,7.747-9.123,12.222c-3.167,4.483-6.52,9.294-9.856,14.484
							c-3.336,5.187-6.675,10.748-9.672,16.755c-1.511,2.996-2.858,6.132-4.233,9.33c-1.368,3.196-2.754,6.44-4.159,9.722
							c-5.57,13.146-10.47,25.854-13.971,37.724c-3.521,11.86-5.616,22.853-6.533,32.167"/>
					</g>
				</g>
			</g>
		</g>
		<g>
			<g>
				<g>
					<g>
						<path style="fill:#E0E0E0;" d="M403.47,204.026c-0.049,0.008-0.182-0.588-0.383-1.672c-0.206-1.083-0.452-2.66-0.727-4.612
							c-0.554-3.903-1.136-9.32-1.754-15.294c-0.618-5.977-1.275-11.37-1.887-15.254c-0.301-1.943-0.56-3.513-0.753-4.596
							c-0.187-1.085-0.268-1.69-0.219-1.702c0.049-0.011,0.221,0.574,0.493,1.643c0.278,1.067,0.615,2.628,0.98,4.566
							c0.744,3.876,1.484,9.281,2.103,15.264c0.595,5.897,1.133,11.231,1.544,15.307c0.197,1.84,0.365,3.391,0.499,4.636
							C403.479,203.407,403.52,204.018,403.47,204.026z"/>
					</g>
				</g>
			</g>
		</g>
		<g>
			<g>
				<g>
					<g>
						<path style="fill:#E0E0E0;" d="M453.872,194.606c0.001,0.05-0.716,0.133-2.01,0.241c-1.293,0.115-3.165,0.271-5.472,0.539
							c-4.616,0.498-10.969,1.41-17.934,2.722c-6.965,1.325-13.216,2.793-17.707,3.985c-2.251,0.58-4.059,1.099-5.312,1.449
							c-1.251,0.356-1.95,0.53-1.967,0.483c-0.015-0.049,0.656-0.314,1.884-0.754c1.229-0.434,3.021-1.029,5.26-1.676
							c4.469-1.323,10.725-2.875,17.71-4.205c6.985-1.315,13.374-2.15,18.017-2.518c2.32-0.202,4.204-0.282,5.506-0.309
							C453.15,194.543,453.869,194.555,453.872,194.606z"/>
					</g>
				</g>
			</g>
		</g>
		<g>
			<g>
				<g>
					<g>
						<path style="fill:#E0E0E0;" d="M381.515,260.034c-0.023,0.01-0.141-0.201-0.346-0.615c-0.233-0.493-0.517-1.095-0.862-1.824
							c-0.741-1.587-1.754-3.911-2.968-6.798c-2.432-5.774-5.54-13.855-8.849-22.819c-3.311-8.968-6.34-17.067-8.647-22.883
							c-1.131-2.827-2.062-5.153-2.753-6.882c-0.296-0.75-0.539-1.369-0.739-1.877c-0.161-0.432-0.236-0.663-0.212-0.675
							c0.023-0.009,0.141,0.202,0.346,0.616c0.233,0.493,0.517,1.093,0.862,1.822c0.741,1.587,1.754,3.911,2.968,6.798
							c2.432,5.774,5.54,13.855,8.85,22.823c3.31,8.965,6.339,17.063,8.646,22.881c1.132,2.826,2.062,5.153,2.753,6.88
							c0.296,0.75,0.539,1.37,0.739,1.878C381.464,259.792,381.538,260.023,381.515,260.034z"/>
					</g>
				</g>
			</g>
		</g>
		<g>
			<g>
				<g>
					<g>
						<path style="fill:#E0E0E0;" d="M448.491,238.448c0.006,0.025-0.223,0.118-0.665,0.274c-0.524,0.175-1.166,0.391-1.945,0.652
							c-1.797,0.583-4.222,1.369-7.172,2.324c-6.056,1.964-14.388,4.773-23.591,7.888c-9.206,3.118-17.573,5.852-23.671,7.691
							c-3.049,0.921-5.523,1.64-7.243,2.103c-0.795,0.209-1.451,0.38-1.984,0.521c-0.456,0.111-0.699,0.157-0.706,0.133
							c-0.006-0.024,0.223-0.118,0.665-0.275c0.523-0.174,1.165-0.389,1.945-0.651c1.797-0.583,4.221-1.368,7.171-2.324
							c6.056-1.963,14.389-4.773,23.595-7.889c9.203-3.117,17.569-5.851,23.667-7.689c3.049-0.921,5.523-1.641,7.244-2.103
							c0.795-0.209,1.45-0.382,1.984-0.521C448.241,238.469,448.483,238.423,448.491,238.448z"/>
					</g>
				</g>
			</g>
		</g>
	</g>
</g>
<g id="Background_Simple" style="display:none;">
	<path style="display:inline;fill:#E0E0E0;" d="M438.06,124.832L438.06,124.832c-17.473-28.432-46.598-48.043-79.673-52.484
		c-12.852-1.726-25.971-1.349-38.673,1.336c-37.895,8.01-70.867,36.307-84.534,72.547c-8.038,21.314-10.284,45.853-25.537,62.771
		c-19.852,22.017-53.554,22.709-83.186,21.797c-29.631-0.912-63.356-0.134-83.111,21.97c-12.372,13.843-16.304,33.53-15.306,52.069
		c2.641,49.084,37.278,92.972,81.327,114.786c44.049,21.815,95.912,23.768,144.12,14.172
		c67.535-13.443,131.76-50.361,170.364-107.382c36.781-54.327,47.387-127.413,21.593-187.424
		C443.339,134.094,440.85,129.372,438.06,124.832z"/>
</g>
<g id="Floor">
	<g>
		<path style="fill:#263238;" d="M470.238,454.635c0,0.144-98.612,0.26-220.228,0.26c-121.658,0-220.249-0.116-220.249-0.26
			c0-0.144,98.591-0.26,220.249-0.26C371.626,454.375,470.238,454.491,470.238,454.635z"/>
	</g>
</g>
<g id="Plants">
	<g>
		<g>
			<g>
				<path style="fill:#E8505B;" d="M151.316,299.362c15.899-16.046,15.729-40.422,11.139-61.527
					c-0.765-3.523-1.057-7.331-3.309-10.134c-2.253-2.802-6.575-4.211-9.476-2.139c-2.407,1.719-2.996,4.99-4.008,7.79
					c-1.345,3.726-3.757,7.046-6.867,9.454c-2.044,1.583-4.706,2.808-7.158,1.985c-3.365-1.13-4.495-5.288-5.115-8.819
					c-1.155-6.579-2.312-13.157-3.467-19.734c-0.62-3.529-1.266-7.131-2.971-10.277c-1.706-3.146-4.695-5.813-8.22-6.142
					c-3.526-0.328-7.32,2.361-7.4,5.941c-0.033,1.49,0.531,2.927,0.7,4.408c0.169,1.481-0.218,3.225-1.534,3.886
					c-1.332,0.67-2.925-0.073-4.166-0.913c-4.287-2.897-7.592-7.033-10.73-11.172c-3.139-4.14-6.229-8.401-10.238-11.682
					c-4.009-3.281-9.136-5.526-14.237-4.892c-5.102,0.634-9.913,4.73-10.286,9.919c-0.374,5.203,3.444,9.718,7.332,13.166
					c5.769,5.117,12.268,9.387,19.23,12.634c1.255,0.586,2.615,1.219,3.278,2.448c1.194,2.211-0.608,4.951-2.788,6.146
					c-2.468,1.354-5.37,1.601-8.059,2.425c-2.69,0.824-5.447,2.579-6.014,5.367c-0.788,3.866,2.914,7.094,6.33,9.028
					c6.84,3.873,14.333,6.551,22.049,7.883c2.766,0.477,5.647,0.812,8.07,2.253c2.423,1.442,4.263,4.38,3.452,7.093
					c-0.812,2.717-3.91,4.102-6.718,4.092c-2.807-0.009-5.508-1.041-8.275-1.546c-5.178-0.946-11.374,0.527-13.715,5.28
					c-1.538,3.124-1.02,6.989,0.61,10.082c1.628,3.093,4.235,5.538,6.932,7.739c9.425,7.696,20.701,13.22,32.651,15.069
					C130.285,306.324,140.89,305.481,151.316,299.362"/>
			</g>
		</g>
		<g>
			<g>
				<g>
					<path style="fill:#263238;" d="M154.462,315.055c-2.302-8.272-5.956-17.871-11.053-28.007
						c-5.078-10.147-11.566-20.809-18.735-31.727c-1.802-2.722-3.583-5.413-5.338-8.064c-1.758-2.643-3.502-5.264-5.365-7.721
						c-3.707-4.934-7.646-9.394-11.518-13.511c-3.871-4.121-7.695-7.889-11.296-11.387c-3.611-3.492-7.037-6.683-10.284-9.458
						c-6.479-5.576-12.227-9.447-16.281-11.943c-2.025-1.255-3.628-2.177-4.723-2.787c-0.526-0.289-0.939-0.516-1.249-0.686
						c-0.283-0.15-0.431-0.223-0.436-0.213c-0.006,0.01,0.13,0.102,0.403,0.273c0.303,0.185,0.705,0.43,1.217,0.743
						c1.072,0.648,2.653,1.604,4.655,2.89c4.006,2.561,9.692,6.477,16.113,12.081c3.219,2.79,6.618,5.993,10.206,9.497
						c3.582,3.513,7.386,7.29,11.237,11.411c3.85,4.119,7.764,8.572,11.443,13.483c1.85,2.447,3.575,5.047,5.336,7.697
						c1.754,2.65,3.532,5.34,5.333,8.062c7.163,10.91,13.651,21.536,18.744,31.637c5.11,10.089,8.794,19.631,11.145,27.858"/>
				</g>
			</g>
		</g>
		<g>
			<g>
				<g>
					<path style="fill:#263238;" d="M113.781,239.544c0.045-0.001,0.067-0.558,0.07-1.567c0.008-1.008-0.029-2.466-0.101-4.267
						c-0.141-3.601-0.505-8.567-0.928-14.041c-0.423-5.477-0.716-10.434-0.801-14.027c-0.048-1.796-0.072-3.251-0.076-4.257
						c-0.009-1.006-0.036-1.564-0.082-1.566c-0.046-0.002-0.105,0.552-0.174,1.558c-0.075,1.005-0.122,2.464-0.133,4.267
						c-0.034,3.607,0.186,8.59,0.61,14.072c0.431,5.401,0.821,10.286,1.119,14.019c0.124,1.687,0.227,3.109,0.31,4.251
						C113.671,238.989,113.735,239.545,113.781,239.544z"/>
				</g>
			</g>
		</g>
		<g>
			<g>
				<g>
					<path style="fill:#263238;" d="M66.911,239.33c0.007,0.045,0.666,0.003,1.848-0.113c1.182-0.108,2.891-0.274,5.009-0.411
						c4.233-0.308,10.096-0.529,16.574-0.49c6.481,0.051,12.343,0.346,16.577,0.683c2.119,0.153,3.831,0.323,5.014,0.434
						c1.183,0.115,1.841,0.157,1.848,0.112c0.006-0.046-0.641-0.175-1.818-0.37c-1.177-0.189-2.885-0.431-5.005-0.646
						c-4.236-0.458-10.116-0.828-16.615-0.881c-6.497-0.038-12.38,0.257-16.615,0.687c-2.12,0.198-3.827,0.435-5.002,0.624
						C67.55,239.155,66.905,239.283,66.911,239.33z"/>
				</g>
			</g>
		</g>
		<g>
			<g>
				<g>
					<path style="fill:#263238;" d="M142.7,286.316c0.022,0.005,0.094-0.204,0.21-0.609c0.129-0.482,0.286-1.069,0.476-1.781
						c0.407-1.548,0.937-3.804,1.556-6.6c1.241-5.591,2.712-13.368,4.219-21.971c1.509-8.607,2.906-16.387,4.028-21.996
						c0.554-2.728,1.01-4.972,1.349-6.64c0.143-0.723,0.261-1.319,0.357-1.809c0.074-0.414,0.103-0.635,0.081-0.642
						c-0.022-0.004-0.094,0.205-0.21,0.611c-0.129,0.482-0.286,1.068-0.477,1.78c-0.407,1.548-0.937,3.804-1.556,6.6
						c-1.241,5.591-2.712,13.368-4.22,21.975c-1.508,8.605-2.905,16.383-4.027,21.993c-0.555,2.727-1.01,4.972-1.349,6.638
						c-0.143,0.723-0.26,1.321-0.357,1.809C142.706,286.09,142.678,286.31,142.7,286.316z"/>
				</g>
			</g>
		</g>
		<g>
			<g>
				<g>
					<path style="fill:#263238;" d="M78.932,277.875c-0.002,0.023,0.22,0.069,0.643,0.138c0.5,0.072,1.113,0.16,1.856,0.267
						c1.711,0.23,4.021,0.539,6.831,0.915c5.768,0.775,13.721,1.935,22.508,3.229c8.79,1.296,16.762,2.384,22.547,3.039
						c2.893,0.329,5.236,0.57,6.858,0.704c0.749,0.057,1.367,0.104,1.869,0.144c0.428,0.026,0.655,0.027,0.656,0.004
						c0.002-0.023-0.22-0.069-0.643-0.139c-0.498-0.071-1.112-0.159-1.856-0.266c-1.711-0.23-4.02-0.538-6.83-0.915
						c-5.768-0.773-13.722-1.935-22.512-3.23c-8.787-1.295-16.758-2.383-22.543-3.038c-2.893-0.329-5.235-0.57-6.859-0.704
						c-0.749-0.057-1.366-0.106-1.869-0.144C79.16,277.854,78.935,277.852,78.932,277.875z"/>
				</g>
			</g>
		</g>
	</g>
	<g>
		<path style="fill:#455A64;" d="M333.318,118.084c3.091-2.397,4.473-6.642,3.827-10.5c-0.646-3.858-3.136-7.273-6.363-9.485
			c-1.492-1.023-3.34-1.834-5.076-1.323c-1.622,0.477-2.752,2.055-3.08,3.713c-0.328,1.659,0.026,3.381,0.579,4.979
			C325.103,110.948,327.945,115.903,333.318,118.084"/>
		<path style="fill:#455A64;" d="M338.389,127.445c6.093-5.558,14.979-7.884,23.014-6.024c2.046,0.474,4.349,1.555,4.686,3.628
			c0.337,2.076-1.517,3.837-3.337,4.892c-7.573,4.39-17.83,3.565-24.603-1.98"/>
		<path style="fill:#455A64;" d="M367.746,84.107c-3.377-0.926-7.079-0.093-10.068,1.732c-2.988,1.825-5.327,4.563-7.2,7.522
			c-3.624,5.725-4.901,13.418-5.061,20.192c7.518-0.304,13.943-6.213,17.014-9.416C367.284,99.076,372.982,86.98,367.746,84.107"/>
		<g>
			<path style="fill:#263238;" d="M327.018,137.672c0.441-0.8,1.159-1.365,1.876-2.834c1.411-2.934,3.313-7.106,4.235-12.072
				c0.918-4.974,0.296-9.667-0.939-12.734c-0.602-1.541-1.276-2.706-1.819-3.451c-0.538-0.748-0.895-1.113-0.929-1.086
				c-0.13,0.084,1.2,1.662,2.243,4.719c1.071,3.027,1.589,7.57,0.697,12.416c-0.898,4.848-2.692,9.003-3.975,11.983"/>
		</g>
		<g>
			<path style="fill:#263238;" d="M326.947,137.763c1.006-1.298,2.324-2.998,3.915-5.049c3.295-4.271,7.861-10.16,12.99-16.598
				c5.129-6.434,9.849-12.199,13.277-16.364c1.645-2.008,3.008-3.673,4.048-4.944c0.949-1.174,1.455-1.839,1.415-1.874
				c-0.04-0.034-0.621,0.566-1.639,1.681c-1.02,1.114-2.467,2.75-4.234,4.79c-3.535,4.08-8.326,9.796-13.461,16.237
				c-5.134,6.445-9.638,12.392-12.825,16.749c-1.594,2.178-2.866,3.954-3.724,5.197"/>
		</g>
		<g>
			<path style="fill:#263238;" d="M356.709,125.869c0.012-0.051-0.451-0.19-1.304-0.399c-0.425-0.113-0.951-0.229-1.571-0.3
				c-0.619-0.079-1.322-0.211-2.11-0.226c-1.571-0.123-3.455-0.057-5.523,0.21c-2.061,0.311-4.303,0.849-6.555,1.709
				c-2.242,0.889-4.259,2.006-5.988,3.17c-1.706,1.201-3.139,2.426-4.214,3.578c-0.57,0.544-1,1.116-1.402,1.592
				c-0.409,0.472-0.718,0.912-0.955,1.283c-0.488,0.731-0.419,1.073-0.375,1.102c0.121,0.087,0.886-1.452,3.112-3.597
				c1.102-1.082,2.539-2.236,4.226-3.378c1.711-1.105,3.686-2.175,5.873-3.043c2.197-0.838,4.376-1.383,6.384-1.725
				c2.014-0.298,3.854-0.418,5.397-0.365C354.791,125.557,356.679,126.014,356.709,125.869z"/>
		</g>
	</g>
</g>
<g id="Device">
	<g>
		<g>
			<g>
				<g>
					<path style="fill:#263238;" d="M298.416,454.512l-133.868-0.62c-16.1-0.073-29.092-13.543-29.022-30.087l1.46-344.864
						c0.07-16.554,13.189-29.916,29.299-29.842l133.868,0.619c16.1,0.075,29.092,13.544,29.022,30.088l-1.46,344.865
						C327.644,441.224,314.525,454.586,298.416,454.512z"/>
				</g>
			</g>
		</g>
		<g>
			<g>
				<g>
					<g>
						<path style="fill:#E0E0E0;" d="M318.555,364.132c0,1.629-1.32,2.949-2.949,2.949c-1.629,0-2.949-1.321-2.949-2.949
							c0-1.629,1.32-2.949,2.949-2.949C317.234,361.183,318.555,362.503,318.555,364.132z"/>
					</g>
					<g>
						<path style="fill:#E0E0E0;" d="M315.605,370.602c-0.144,0-0.26-1.448-0.26-3.235c0-1.787,0.117-3.235,0.26-3.235
							s0.26,1.448,0.26,3.235C315.866,369.154,315.749,370.602,315.605,370.602z"/>
					</g>
				</g>
				<g>
					<g>
						<path style="fill:#FAFAFA;" d="M302.828,61.105l-26.772-0.124c-3.59-0.016-6.514,3.014-6.529,6.766l-0.022,4.856
							c-0.015,3.753-2.939,6.783-6.529,6.766l-52.184-0.241c-3.59-0.016-6.488-3.073-6.472-6.826l0.021-4.856
							c0.016-3.753-2.882-6.81-6.473-6.826l-9.415-0.044l-23.431-0.108c-11.637-0.053-21.113,9.339-21.162,20.976l-1.428,337.89
							c-0.049,11.632,9.337,21.101,20.968,21.156l137.806,0.636c11.636,0.054,21.112-9.339,21.162-20.976l1.428-337.891
							C323.844,70.628,314.459,61.159,302.828,61.105z"/>
					</g>
					<path style="fill:#EBEBEB;" d="M151.583,327.741c1.174-0.882,58.807-26.271,58.807-26.271l-67.319-33.577l-0.229,54.078
						L151.583,327.741z"/>
					<polygon style="fill:#E8505B;" points="155.1,266.846 204.205,241.887 151.435,212.631 143.297,214.669 143.097,262.01 					
						"/>
					<polygon style="opacity:0.7;fill:#FFFFFF;" points="155.1,266.846 204.205,241.887 151.435,212.631 143.297,214.669 
						143.097,262.01 					"/>
					<polygon style="fill:#EBEBEB;" points="145.072,209.231 296.445,138.529 146.466,89.523 					"/>
					<polygon style="fill:#EBEBEB;" points="143.313,393.35 212.482,357.848 315.451,418.433 290.922,439.937 203.05,439.937 
						143.313,403.425 					"/>
					<polygon style="fill:#EBEBEB;" points="226.1,354.014 311.641,404.729 321.176,403.646 321.176,354.876 274.302,330.069 					
						"/>
					<polygon style="fill:#EBEBEB;" points="240.16,305.583 320.809,350.954 320.809,291.641 291.631,279.136 					"/>
					<polygon style="fill:#EBEBEB;" points="154.02,330.579 201.331,356.54 258.745,326.802 213.133,303.598 					"/>
					<polygon style="fill:#EBEBEB;" points="225.039,241.563 292.065,274.775 323.14,258.898 323.344,236.644 278.066,214.669 					
						"/>
					<polygon style="fill:#EBEBEB;" points="156.496,270.531 223.521,303.744 254.597,287.866 254.801,265.613 209.523,243.638 
											"/>
					<polygon style="fill:#EBEBEB;" points="165.785,210.838 220.403,238.195 271.34,210.838 218.563,186.759 					"/>
					<g>
						<path style="fill:#E8505B;" d="M271.34,385.617c-0.013,0.022-0.346-0.146-0.986-0.497c-0.645-0.363-1.588-0.894-2.826-1.591
							c-2.479-1.434-6.127-3.543-10.843-6.27c-9.419-5.522-23.095-13.54-40.164-23.547l-0.835-0.49l0.866-0.44
							c14.94-7.597,32.817-16.688,52.68-26.788l-0.014,1.213c-12.18-6.491-25.446-13.562-39.338-20.966l-1.245-0.663l1.251-0.656
							c17.099-8.975,35.549-18.659,54.646-28.683l0.01,1.388c-2.062-1.043-4.287-2.169-6.521-3.299
							c-45.787-23.23-88.156-44.726-122.397-62.098l-1.152-0.584l1.163-0.554c27.087-12.919,49.401-23.561,64.953-30.979
							c7.784-3.666,13.874-6.534,18.028-8.491c2.075-0.954,3.665-1.685,4.747-2.183c0.534-0.234,0.941-0.412,1.225-0.537
							c0.277-0.115,0.421-0.167,0.428-0.152c0.007,0.015-0.123,0.095-0.385,0.24c-0.274,0.144-0.667,0.351-1.183,0.623
							c-1.063,0.536-2.626,1.323-4.666,2.35c-4.12,2.028-10.159,5.001-17.878,8.802c-15.496,7.535-37.728,18.346-64.717,31.47
							l0.011-1.139c34.277,17.299,76.692,38.704,122.529,61.837c2.233,1.13,4.459,2.257,6.52,3.3l1.353,0.685l-1.344,0.703
							c-19.109,10.003-37.569,19.667-54.678,28.623l0.005-1.32c13.87,7.443,27.117,14.551,39.278,21.076l1.161,0.623l-1.176,0.59
							c-19.914,9.997-37.839,18.995-52.818,26.515l0.031-0.93c16.965,10.183,30.557,18.342,39.918,23.961
							c4.654,2.832,8.254,5.022,10.7,6.511c1.204,0.752,2.123,1.326,2.75,1.717C271.046,385.383,271.353,385.595,271.34,385.617z"/>
					</g>
					<path style="fill:#E8505B;" d="M259.59,136.639c0-9.976-10.482-16.297-21.169-11.296c-2.414,1.129-4.411,3.041-5.623,5.39
						c-2.689,5.209-1.502,11.156,0.937,16.094l8.317,21.08c1.199,3.038,5.505,3.02,6.678-0.028l8.155-21.19
						C259.708,140.236,259.59,136.639,259.59,136.639z M249.549,145.321c-7.185,4.177-14.466-3.544-10.528-11.164
						c0.524-1.014,1.326-1.864,2.282-2.42c7.185-4.178,14.467,3.544,10.528,11.165C251.307,143.915,250.505,144.765,249.549,145.321
						z"/>
					<g>
						<polygon style="fill:#F5F5F5;" points="243.632,245.78 243.391,233.996 274.099,248.871 274.099,261.106 						"/>
						<polygon style="fill:#E0E0E0;" points="274.099,248.871 312.244,229.918 312.244,243.113 274.099,261.106 						"/>
						<polygon style="fill:#F5F5F5;" points="243.391,233.996 280.816,215.284 312.244,229.918 274.099,248.871 						"/>
						<polygon style="fill:#FAFAFA;" points="247.402,239.085 247.402,244.799 250.403,246.154 250.403,240.692 						"/>
						<polygon style="fill:#FAFAFA;" points="252.203,241.204 252.203,246.917 255.205,248.273 255.205,242.811 						"/>
					</g>
					<g>
						<polygon style="fill:#E0E0E0;" points="147.011,171.454 147.011,156.118 183.362,173.726 183.362,188.21 						"/>
						<polygon style="fill:#F5F5F5;" points="183.362,173.726 228.518,151.29 228.518,166.91 183.362,188.21 						"/>
						<polygon style="fill:#FAFAFA;" points="147.011,156.118 191.314,133.966 228.518,151.29 183.362,173.726 						"/>
						<polygon style="fill:#FAFAFA;" points="151.759,162.142 151.759,168.905 155.312,170.51 155.312,164.044 						"/>
						<polygon style="fill:#FAFAFA;" points="157.442,164.65 157.442,171.414 160.996,173.018 160.996,166.553 						"/>
					</g>
					<g>
						<path style="fill:#E0E0E0;" d="M256.586,299.586c0,0.72,0,12.084,0,12.084l12.955,6.389v-12.475L256.586,299.586z"/>
						<polygon style="fill:#E0E0E0;" points="286.094,297.666 269.541,305.583 269.541,318.059 286.094,308.822 						"/>
						<polygon style="fill:#F5F5F5;" points="256.586,299.586 272.993,291.641 286.094,297.666 269.541,305.583 						"/>
						<polygon style="fill:#FAFAFA;" points="261.189,308.258 261.189,313.971 264.19,315.327 264.19,309.865 						"/>
					</g>
					<g>
						<path style="fill:#E0E0E0;" d="M151.939,293.337c0,0.72,0,12.084,0,12.084l12.955,6.389v-12.475L151.939,293.337z"/>
						<polygon style="fill:#E0E0E0;" points="181.448,291.418 164.894,299.335 164.894,311.81 181.448,302.573 						"/>
						<polygon style="fill:#F5F5F5;" points="151.939,293.337 168.347,285.392 181.448,291.418 164.894,299.335 						"/>
						<polygon style="fill:#FAFAFA;" points="156.542,302.009 156.542,307.723 159.544,309.078 159.544,303.616 						"/>
					</g>
					<g>
						<path style="fill:#F5F5F5;" d="M205.649,213.604c0,0.72,0,12.084,0,12.084l12.955,6.389v-12.475L205.649,213.604z"/>
						<polygon style="fill:#E0E0E0;" points="235.157,211.685 218.604,219.602 218.604,232.077 235.157,222.841 						"/>
						<polygon style="fill:#F5F5F5;" points="205.649,213.604 222.056,205.66 235.157,211.685 218.604,219.602 						"/>
						<polygon style="fill:#E0E0E0;" points="210.252,222.277 210.252,227.99 213.253,229.346 213.253,223.884 						"/>
					</g>
					<g>
						<path style="fill:#E0E0E0;" d="M191.25,317.131c0,0.72,0,12.084,0,12.084l12.955,6.389v-12.475L191.25,317.131z"/>
						<polygon style="fill:#EBEBEB;" points="220.758,315.212 204.205,323.129 204.205,335.604 220.758,326.368 						"/>
						<polygon style="fill:#F5F5F5;" points="191.25,317.131 207.657,309.187 220.758,315.212 204.205,323.129 						"/>
						<polygon style="fill:#FAFAFA;" points="195.853,325.804 195.853,331.517 198.855,332.873 198.855,327.411 						"/>
					</g>
					<g>
						<path style="fill:#F5F5F5;" d="M244.732,346.315c0,0.903,0,15.153,0,15.153l27.303,16.076v-15.644L244.732,346.315z"/>
						<polygon style="fill:#E0E0E0;" points="292.792,350.72 272.034,361.901 272.034,377.544 292.792,365.962 						"/>
						<polygon style="fill:#FAFAFA;" points="244.732,346.315 265.306,336.353 292.792,350.72 272.034,361.901 						"/>
						<polygon style="fill:#FAFAFA;" points="255.041,360.326 255.041,367.491 258.805,369.755 258.805,362.666 						"/>
					</g>
					<g>
						<path style="fill:#E0E0E0;" d="M179.059,377.5c0,0.902,0,15.153,0,15.153l27.302,16.076v-15.644L179.059,377.5z"/>
						<polygon style="fill:#FAFAFA;" points="238.936,375.432 206.361,393.085 206.361,408.728 239.033,390.624 						"/>
						<polygon style="fill:#F5F5F5;" points="179.059,377.5 213.517,360.815 239.033,375.488 206.361,393.085 						"/>
						<polygon style="fill:#FAFAFA;" points="189.368,391.51 189.368,398.675 193.132,400.939 193.132,393.85 						"/>
					</g>
					<g>
						<polygon style="fill:#F5F5F5;" points="282.404,320.854 282.404,381.362 299.44,390.174 299.44,328.897 						"/>
						<polygon style="fill:#FAFAFA;" points="294.988,315.045 282.404,320.854 299.44,328.897 310.903,322.442 						"/>
						<polygon style="fill:#E0E0E0;" points="299.44,328.897 299.44,390.174 309.81,384.591 310.903,322.442 						"/>
					</g>
					<g>
						<polygon style="fill:#F5F5F5;" points="210.39,271.842 210.39,332.35 227.427,341.162 227.427,279.885 						"/>
						<polygon style="fill:#FAFAFA;" points="222.975,266.033 210.39,271.842 227.427,279.885 238.89,273.431 						"/>
						<polygon style="fill:#E0E0E0;" points="227.427,279.885 227.427,341.162 237.789,336.048 238.89,273.431 						"/>
					</g>
					<g>
						<path style="fill:#E0E0E0;" d="M218.124,386.912c0,0.903,0,15.153,0,15.153l27.302,16.076v-15.644L218.124,386.912z"/>
						<polygon style="fill:#FAFAFA;" points="266.184,391.317 245.426,402.497 245.426,418.141 266.184,406.558 						"/>
						<polygon style="fill:#F5F5F5;" points="218.124,386.912 238.936,375.432 266.184,391.317 245.426,402.497 						"/>
						<polygon style="fill:#FAFAFA;" points="228.432,400.923 228.432,408.087 232.197,410.351 232.197,403.263 						"/>
					</g>
					<path style="fill:#E0E0E0;" d="M223.452,184.163"/>
					<polygon style="fill:#EBEBEB;" points="278.843,206.281 229.117,183.87 298.36,148.63 321.078,182.509 					"/>
					<polygon style="fill:#E8505B;" points="323.095,226.859 323.438,188.061 284.895,209.998 					"/>
					<g>
						<g>
							<path style="fill:#E0E0E0;" d="M293.805,265.716c0,1.629-1.32,2.949-2.949,2.949c-1.629,0-2.949-1.32-2.949-2.949
								c0-1.629,1.32-2.949,2.949-2.949C292.485,262.767,293.805,264.087,293.805,265.716z"/>
						</g>
						<g>
							<path style="fill:#E0E0E0;" d="M290.856,272.186c-0.144,0-0.26-1.448-0.26-3.235c0-1.787,0.117-3.235,0.26-3.235
								c0.144,0,0.26,1.448,0.26,3.235C291.116,270.738,291,272.186,290.856,272.186z"/>
						</g>
					</g>
					<g>
						<g>
							<path style="fill:#E0E0E0;" d="M213.34,258.489c0,1.629-1.321,2.95-2.95,2.95c-1.629,0-2.949-1.321-2.949-2.95
								c0-1.629,1.32-2.949,2.949-2.949C212.019,255.54,213.34,256.86,213.34,258.489z"/>
						</g>
						<g>
							<path style="fill:#E0E0E0;" d="M210.39,264.959c-0.144,0-0.26-1.448-0.26-3.235c0-1.787,0.117-3.235,0.26-3.235
								s0.26,1.448,0.26,3.235C210.651,263.511,210.534,264.959,210.39,264.959z"/>
						</g>
					</g>
					<g>
						<g>
							<path style="fill:#E0E0E0;" d="M173.921,299.667c0,1.629-1.32,2.949-2.949,2.949c-1.629,0-2.949-1.32-2.949-2.949
								c0-1.629,1.32-2.949,2.949-2.949C172.6,296.717,173.921,298.038,173.921,299.667z"/>
						</g>
						<g>
							<path style="fill:#E0E0E0;" d="M170.971,306.137c-0.144,0-0.26-1.448-0.26-3.235c0-1.787,0.117-3.235,0.26-3.235
								s0.26,1.448,0.26,3.235C171.232,304.688,171.115,306.137,170.971,306.137z"/>
						</g>
					</g>
					<g>
						<g>
							<path style="fill:#E0E0E0;" d="M176.87,267.893c0,1.629-1.321,2.949-2.95,2.949c-1.629,0-2.949-1.32-2.949-2.949
								c0-1.629,1.321-2.949,2.949-2.949C175.55,264.943,176.87,266.264,176.87,267.893z"/>
						</g>
						<g>
							<path style="fill:#E0E0E0;" d="M173.921,274.362c-0.144,0-0.26-1.448-0.26-3.235c0-1.787,0.117-3.235,0.26-3.235
								c0.144,0,0.26,1.448,0.26,3.235C174.181,272.914,174.065,274.362,173.921,274.362z"/>
						</g>
					</g>
					<g>
						<g>
							<path style="fill:#E0E0E0;" d="M249.667,264.975c0,1.629-1.32,2.949-2.949,2.949c-1.629,0-2.949-1.32-2.949-2.949
								c0-1.629,1.32-2.95,2.949-2.95C248.346,262.025,249.667,263.346,249.667,264.975z"/>
						</g>
						<g>
							<path style="fill:#E0E0E0;" d="M246.717,271.445c-0.144,0-0.26-1.448-0.26-3.235c0-1.787,0.116-3.235,0.26-3.235
								c0.144,0,0.26,1.448,0.26,3.235C246.978,269.996,246.861,271.445,246.717,271.445z"/>
						</g>
					</g>
					<g>
						<g>
							<path style="fill:#E0E0E0;" d="M296.256,287.071c0,1.629-1.321,2.949-2.949,2.949c-1.629,0-2.949-1.32-2.949-2.949
								c0-1.629,1.32-2.949,2.949-2.949C294.936,284.121,296.256,285.442,296.256,287.071z"/>
						</g>
						<g>
							<path style="fill:#E0E0E0;" d="M293.307,293.54c-0.144,0-0.26-1.449-0.26-3.235c0-1.787,0.117-3.235,0.26-3.235
								s0.26,1.448,0.26,3.235C293.567,292.092,293.451,293.54,293.307,293.54z"/>
						</g>
					</g>
					<g>
						<g>
							<path style="fill:#E0E0E0;" d="M298.143,304.419c0,1.629-1.321,2.949-2.95,2.949c-1.629,0-2.949-1.32-2.949-2.949
								c0-1.629,1.321-2.949,2.949-2.949C296.822,301.47,298.143,302.79,298.143,304.419z"/>
						</g>
						<g>
							<path style="fill:#E0E0E0;" d="M295.194,310.889c-0.144,0-0.26-1.449-0.26-3.235c0-1.787,0.117-3.235,0.26-3.235
								c0.144,0,0.26,1.448,0.26,3.235C295.454,309.441,295.337,310.889,295.194,310.889z"/>
						</g>
					</g>
					<g>
						<g>
							<path style="fill:#E0E0E0;" d="M215.431,340.415c0,1.629-1.32,2.949-2.949,2.949c-1.629,0-2.949-1.321-2.949-2.949
								s1.32-2.949,2.949-2.949C214.111,337.466,215.431,338.786,215.431,340.415z"/>
						</g>
						<g>
							<path style="fill:#E0E0E0;" d="M212.482,346.885c-0.144,0-0.26-1.448-0.26-3.235c0-1.787,0.117-3.235,0.26-3.235
								c0.144,0,0.26,1.448,0.26,3.235C212.742,345.437,212.625,346.885,212.482,346.885z"/>
						</g>
					</g>
					<g>
						<g>
							<circle style="fill:#E0E0E0;" cx="309.387" cy="391.852" r="2.949"/>
						</g>
						<g>
							<path style="fill:#E0E0E0;" d="M309.387,398.322c-0.144,0-0.26-1.448-0.26-3.235c0-1.787,0.117-3.235,0.26-3.235
								c0.144,0,0.26,1.448,0.26,3.235C309.647,396.874,309.53,398.322,309.387,398.322z"/>
						</g>
					</g>
					<g>
						<g>
							<path style="fill:#E0E0E0;" d="M255.969,424.113c0,1.629-1.321,2.949-2.95,2.949c-1.629,0-2.949-1.321-2.949-2.949
								c0-1.629,1.321-2.95,2.949-2.95C254.648,421.164,255.969,422.484,255.969,424.113z"/>
						</g>
						<g>
							<path style="fill:#E0E0E0;" d="M253.019,430.583c-0.144,0-0.26-1.448-0.26-3.235c0-1.787,0.116-3.235,0.26-3.235
								c0.144,0,0.26,1.448,0.26,3.235C253.28,429.135,253.163,430.583,253.019,430.583z"/>
						</g>
					</g>
					<g>
						<g>
							<path style="fill:#E0E0E0;" d="M233.264,415.198c0,1.629-1.321,2.949-2.949,2.949c-1.629,0-2.95-1.32-2.95-2.949
								c0-1.629,1.321-2.949,2.95-2.949C231.944,412.249,233.264,413.569,233.264,415.198z"/>
						</g>
						<g>
							<path style="fill:#E0E0E0;" d="M230.315,421.668c-0.144,0-0.26-1.449-0.26-3.235c0-1.787,0.117-3.235,0.26-3.235
								s0.26,1.448,0.26,3.235C230.575,420.219,230.458,421.668,230.315,421.668z"/>
						</g>
					</g>
					<g>
						<g>
							<path style="fill:#E0E0E0;" d="M285.353,408.728c0,1.629-1.32,2.949-2.949,2.949c-1.629,0-2.949-1.32-2.949-2.949
								c0-1.629,1.32-2.949,2.949-2.949C284.033,405.779,285.353,407.099,285.353,408.728z"/>
						</g>
						<g>
							<path style="fill:#E0E0E0;" d="M282.404,415.198c-0.144,0-0.26-1.448-0.26-3.235c0-1.787,0.117-3.235,0.26-3.235
								s0.26,1.448,0.26,3.235C282.664,413.75,282.547,415.198,282.404,415.198z"/>
						</g>
					</g>
					<g>
						<g>
							<circle style="fill:#E0E0E0;" cx="237.99" cy="351.922" r="2.95"/>
						</g>
						<g>
							<path style="fill:#E0E0E0;" d="M237.99,358.392c-0.144,0-0.26-1.448-0.26-3.235c0-1.787,0.117-3.235,0.26-3.235
								c0.144,0,0.26,1.448,0.26,3.235C238.25,356.944,238.134,358.392,237.99,358.392z"/>
						</g>
					</g>
					<g>
						<g>
							<path style="fill:#E0E0E0;" d="M248.376,323.129c0,1.629-1.32,2.95-2.949,2.95c-1.629,0-2.949-1.321-2.949-2.95
								c0-1.629,1.32-2.949,2.949-2.949C247.055,320.18,248.376,321.5,248.376,323.129z"/>
						</g>
						<g>
							<path style="fill:#E0E0E0;" d="M245.426,329.599c-0.144,0-0.261-1.448-0.261-3.235c0-1.787,0.117-3.235,0.261-3.235
								c0.144,0,0.26,1.448,0.26,3.235C245.687,328.151,245.57,329.599,245.426,329.599z"/>
						</g>
					</g>
					<g>
						<g>
							<path style="fill:#E0E0E0;" d="M176.87,326.368c0,1.629-1.321,2.95-2.95,2.95c-1.629,0-2.949-1.321-2.949-2.95
								c0-1.629,1.321-2.949,2.949-2.949C175.55,323.418,176.87,324.739,176.87,326.368z"/>
						</g>
						<g>
							<path style="fill:#E0E0E0;" d="M173.921,332.838c-0.144,0-0.26-1.448-0.26-3.235c0-1.787,0.117-3.235,0.26-3.235
								c0.144,0,0.26,1.448,0.26,3.235C174.181,331.389,174.065,332.838,173.921,332.838z"/>
						</g>
					</g>
					<g>
						<g>
							<path style="fill:#E0E0E0;" d="M313.089,299.667c0,1.629-1.321,2.949-2.949,2.949c-1.629,0-2.95-1.32-2.95-2.949
								c0-1.629,1.321-2.949,2.95-2.949C311.769,296.717,313.089,298.038,313.089,299.667z"/>
						</g>
						<g>
							<path style="fill:#E0E0E0;" d="M310.14,306.137c-0.144,0-0.26-1.448-0.26-3.235c0-1.787,0.117-3.235,0.26-3.235
								s0.26,1.448,0.26,3.235C310.4,304.688,310.284,306.137,310.14,306.137z"/>
						</g>
					</g>
					<g>
						<g>
							<path style="fill:#E0E0E0;" d="M305.175,255.54c0,1.629-1.32,2.949-2.949,2.949c-1.629,0-2.95-1.32-2.95-2.949
								c0-1.629,1.32-2.95,2.95-2.95C303.855,252.59,305.175,253.911,305.175,255.54z"/>
						</g>
						<g>
							<path style="fill:#E0E0E0;" d="M302.226,262.01c-0.144,0-0.26-1.449-0.26-3.235c0-1.787,0.117-3.235,0.26-3.235
								s0.26,1.448,0.26,3.235C302.486,260.561,302.37,262.01,302.226,262.01z"/>
						</g>
					</g>
					<g>
						<g>
							<circle style="fill:#E0E0E0;" cx="242.495" cy="216.542" r="2.949"/>
						</g>
						<g>
							<path style="fill:#E0E0E0;" d="M242.495,223.012c-0.144,0-0.26-1.448-0.26-3.235c0-1.787,0.117-3.235,0.26-3.235
								c0.144,0,0.26,1.448,0.26,3.235C242.756,221.563,242.639,223.012,242.495,223.012z"/>
						</g>
					</g>
					<g>
						<g>
							<path style="fill:#E0E0E0;" d="M189.054,272.186c0,1.629-1.321,2.949-2.95,2.949c-1.629,0-2.949-1.32-2.949-2.949
								c0-1.629,1.321-2.949,2.949-2.949C187.734,269.237,189.054,270.557,189.054,272.186z"/>
						</g>
						<g>
							<path style="fill:#E0E0E0;" d="M186.105,278.656c-0.144,0-0.26-1.449-0.26-3.235c0-1.787,0.117-3.235,0.26-3.235
								c0.144,0,0.26,1.448,0.26,3.235C186.365,277.207,186.249,278.656,186.105,278.656z"/>
						</g>
					</g>
					<g>
						<g>
							<path style="fill:#E0E0E0;" d="M223.708,195.488c0,1.629-1.32,2.949-2.949,2.949c-1.629,0-2.949-1.32-2.949-2.949
								c0-1.629,1.32-2.949,2.949-2.949C222.387,192.538,223.708,193.859,223.708,195.488z"/>
						</g>
						<g>
							<path style="fill:#E0E0E0;" d="M220.758,201.957c-0.144,0-0.26-1.448-0.26-3.235c0-1.787,0.117-3.235,0.26-3.235
								c0.144,0,0.26,1.448,0.26,3.235C221.019,200.509,220.902,201.957,220.758,201.957z"/>
						</g>
					</g>
					<g>
						<g>
							<path style="fill:#E0E0E0;" d="M283.864,189.018c0,1.629-1.321,2.949-2.95,2.949c-1.629,0-2.949-1.32-2.949-2.949
								c0-1.629,1.32-2.95,2.949-2.95C282.543,186.068,283.864,187.389,283.864,189.018z"/>
						</g>
						<g>
							<path style="fill:#E0E0E0;" d="M280.915,195.488c-0.144,0-0.26-1.449-0.26-3.235c0-1.787,0.117-3.235,0.26-3.235
								c0.144,0,0.26,1.448,0.26,3.235C281.175,194.039,281.058,195.488,280.915,195.488z"/>
						</g>
					</g>
					<g>
						<g>
							<path style="fill:#E0E0E0;" d="M300.488,186.298c0,1.629-1.321,2.949-2.949,2.949c-1.629,0-2.95-1.32-2.95-2.949
								c0-1.629,1.321-2.949,2.95-2.949C299.168,183.349,300.488,184.669,300.488,186.298z"/>
						</g>
						<g>
							<path style="fill:#E0E0E0;" d="M297.539,192.768c-0.144,0-0.26-1.449-0.26-3.235c0-1.787,0.117-3.235,0.26-3.235
								s0.26,1.448,0.26,3.235C297.799,191.319,297.683,192.768,297.539,192.768z"/>
						</g>
					</g>
					<g>
						<g>
							<path style="fill:#E0E0E0;" d="M293.805,164.538c0,1.629-1.32,2.949-2.949,2.949c-1.629,0-2.949-1.32-2.949-2.949
								c0-1.629,1.32-2.949,2.949-2.949C292.485,161.589,293.805,162.909,293.805,164.538z"/>
						</g>
						<g>
							<path style="fill:#E0E0E0;" d="M290.856,171.008c-0.144,0-0.26-1.449-0.26-3.235c0-1.787,0.117-3.235,0.26-3.235
								c0.144,0,0.26,1.448,0.26,3.235C291.116,169.559,291,171.008,290.856,171.008z"/>
						</g>
					</g>
					<g>
						<g>
							<path style="fill:#E0E0E0;" d="M201.181,214.669c0,1.629-1.32,2.949-2.949,2.949c-1.629,0-2.95-1.32-2.95-2.949
								c0-1.629,1.321-2.949,2.95-2.949C199.861,211.72,201.181,213.04,201.181,214.669z"/>
						</g>
						<g>
							<path style="fill:#E0E0E0;" d="M198.232,221.139c-0.144,0-0.26-1.448-0.26-3.235c0-1.787,0.117-3.235,0.26-3.235
								s0.26,1.448,0.26,3.235C198.492,219.69,198.376,221.139,198.232,221.139z"/>
						</g>
					</g>
					<g>
						<g>
							<path style="fill:#E0E0E0;" d="M269.741,186.759c0,1.629-1.32,2.95-2.949,2.95c-1.629,0-2.949-1.321-2.949-2.95
								c0-1.629,1.32-2.949,2.949-2.949C268.421,183.809,269.741,185.13,269.741,186.759z"/>
						</g>
						<g>
							<path style="fill:#E0E0E0;" d="M266.792,193.229c-0.144,0-0.26-1.448-0.26-3.235c0-1.787,0.117-3.235,0.26-3.235
								s0.26,1.448,0.26,3.235C267.052,191.78,266.936,193.229,266.792,193.229z"/>
						</g>
					</g>
					<g>
						<g>
							<path style="fill:#E0E0E0;" d="M186.911,120.315c0,1.629-1.321,2.95-2.95,2.95c-1.629,0-2.949-1.321-2.949-2.95
								c0-1.629,1.321-2.949,2.949-2.949C185.59,117.366,186.911,118.686,186.911,120.315z"/>
						</g>
						<g>
							<path style="fill:#E0E0E0;" d="M183.961,126.785c-0.144,0-0.26-1.448-0.26-3.235c0-1.787,0.117-3.235,0.26-3.235
								c0.144,0,0.26,1.448,0.26,3.235C184.222,125.337,184.105,126.785,183.961,126.785z"/>
						</g>
					</g>
					<g>
						<g>
							<path style="fill:#E0E0E0;" d="M220.758,136.472c0,1.629-1.321,2.949-2.949,2.949c-1.629,0-2.95-1.32-2.95-2.949
								c0-1.629,1.321-2.949,2.95-2.949C219.438,133.523,220.758,134.843,220.758,136.472z"/>
						</g>
						<g>
							<path style="fill:#E0E0E0;" d="M217.809,142.942c-0.144,0-0.26-1.448-0.26-3.235c0-1.787,0.117-3.235,0.26-3.235
								c0.144,0,0.26,1.448,0.26,3.235C218.069,141.494,217.953,142.942,217.809,142.942z"/>
						</g>
					</g>
					<g>
						<g>
							<path style="fill:#E0E0E0;" d="M166.958,187.487c0,1.629-1.32,2.949-2.949,2.949c-1.629,0-2.95-1.32-2.95-2.949
								c0-1.629,1.321-2.949,2.95-2.949C165.638,184.538,166.958,185.858,166.958,187.487z"/>
						</g>
						<g>
							<path style="fill:#E0E0E0;" d="M164.009,193.957c-0.144,0-0.26-1.449-0.26-3.235c0-1.787,0.117-3.235,0.26-3.235
								s0.26,1.448,0.26,3.235C164.269,192.509,164.153,193.957,164.009,193.957z"/>
						</g>
					</g>
					<g>
						<g>
							<path style="fill:#E0E0E0;" d="M169.908,139.422c0,1.629-1.32,2.95-2.949,2.95c-1.629,0-2.949-1.321-2.949-2.95
								c0-1.629,1.32-2.949,2.949-2.949C168.587,136.472,169.908,137.793,169.908,139.422z"/>
						</g>
						<g>
							<path style="fill:#E0E0E0;" d="M166.958,145.892c-0.144,0-0.26-1.448-0.26-3.235c0-1.787,0.117-3.235,0.26-3.235
								c0.144,0,0.26,1.448,0.26,3.235C167.219,144.443,167.102,145.892,166.958,145.892z"/>
						</g>
					</g>
					<polygon style="fill:#EBEBEB;" points="296.862,276.973 321.176,264.082 321.078,287.327 					"/>
					<polygon style="fill:#EBEBEB;" points="195.853,359.41 142.569,386.912 142.569,335.604 148.475,332.967 					"/>
					<path style="fill:#E8505B;" d="M275.434,386.912c0,1.877-1.522,3.399-3.399,3.399c-1.878,0-3.399-1.522-3.399-3.399
						c0-1.878,1.522-3.399,3.399-3.399C273.912,383.513,275.434,385.034,275.434,386.912z"/>
					<polygon style="fill:#EBEBEB;" points="306.542,144.221 323.512,149.377 323.512,176.122 					"/>
					<path style="fill:#E8505B;" d="M323.685,108.504l-0.105-29.182c-1.389-10.243-10.12-18.168-20.752-18.217l-26.772-0.124
						c-3.59-0.016-6.514,3.014-6.529,6.766l-0.022,4.856c-0.015,3.753-2.939,6.783-6.529,6.766l-52.184-0.241
						c-3.59-0.016-6.488-3.073-6.472-6.826l0.021-4.856c0.016-3.753-2.882-6.81-6.473-6.826l-9.415-0.044l-23.432-0.108
						c-5.503-0.025-10.506,2.079-14.274,5.516c-2.351,4.521-4.913,10.953-3.738,15.89l176.544,57.469L323.685,108.504z"/>
					<path style="opacity:0.7;fill:#FFFFFF;" d="M323.685,108.504l-0.105-29.182c-1.389-10.243-10.12-18.168-20.752-18.217
						l-26.772-0.124c-3.59-0.016-6.514,3.014-6.529,6.766l-0.022,4.856c-0.015,3.753-2.939,6.783-6.529,6.766l-52.184-0.241
						c-3.59-0.016-6.488-3.073-6.472-6.826l0.021-4.856c0.016-3.753-2.882-6.81-6.473-6.826l-9.415-0.044l-23.432-0.108
						c-5.503-0.025-10.506,2.079-14.274,5.516c-2.351,4.521-4.913,10.953-3.738,15.89l176.544,57.469L323.685,108.504z"/>
				</g>
			</g>
			<g>
				<g>
					<path style="fill:#263238;" d="M302.828,61.105c0,0,0.242,0.004,0.721,0.026c0.476,0.048,1.201-0.005,2.134,0.176
						c1.866,0.229,4.703,0.847,7.888,2.764c1.609,0.916,3.243,2.232,4.788,3.914c1.539,1.684,2.966,3.787,3.983,6.303
						c1.032,2.508,1.583,5.434,1.541,8.554c-0.009,3.111-0.02,6.423-0.03,9.931c-0.099,28.069-0.243,68.678-0.42,118.856
						c-0.196,50.182-0.43,109.932-0.689,176.278c-0.034,8.293-0.067,16.69-0.102,25.183c-0.009,2.123-0.017,4.253-0.026,6.388
						c-0.032,2.138-0.179,4.335-0.832,6.414c-0.614,2.078-1.484,4.104-2.71,5.916c-1.221,1.811-2.704,3.447-4.401,4.844
						c-3.431,2.731-7.722,4.464-12.164,4.665c-1.113,0.074-2.209,0.058-3.307,0.051l-3.302-0.015c-2.204-0.01-4.414-0.02-6.628-0.03
						c-8.859-0.04-17.804-0.08-26.829-0.121c-18.049-0.082-36.418-0.165-55.059-0.25c-9.321-0.043-18.71-0.086-28.161-0.129
						c-4.726-0.022-9.467-0.044-14.223-0.065c-4.772,0.224-9.708-1.054-13.683-3.837c-3.992-2.764-6.93-6.931-8.29-11.548
						c-0.732-2.302-0.859-4.753-0.849-7.12c0.01-2.371,0.02-4.739,0.03-7.103c0.04-9.454,0.08-18.846,0.12-28.169
						c0.08-18.647,0.159-37.02,0.237-55.074c0.158-36.108,0.31-70.936,0.455-104.114c0.149-33.178,0.29-64.705,0.422-94.211
						c0.068-14.753,0.133-29,0.195-42.695c0.008-1.712,0.016-3.415,0.024-5.11c0.015-0.849,0.08-1.705,0.129-2.552
						c0.152-0.837,0.22-1.688,0.44-2.506c0.783-3.291,2.32-6.368,4.461-8.897c2.157-2.515,4.858-4.505,7.826-5.801
						c2.967-1.325,6.22-1.783,9.361-1.732c6.273,0.032,12.395,0.063,18.363,0.094c2.984,0.015,5.929,0.031,8.834,0.046
						c1.453,0.008,2.896,0.015,4.328,0.022c1.446-0.065,2.945,0.336,4.128,1.171c1.184,0.835,2.092,2.034,2.555,3.383
						c0.533,1.35,0.399,2.806,0.41,4.155c-0.003,0.686-0.007,1.37-0.01,2.05c-0.001,0.684-0.029,1.361,0.058,2.011
						c0.162,1.309,0.71,2.564,1.564,3.544c0.836,0.995,1.986,1.707,3.222,2.019c0.624,0.159,1.248,0.205,1.903,0.195
						c0.65,0.003,1.296,0.007,1.941,0.01c2.577,0.014,5.112,0.027,7.603,0.04c9.966,0.054,19.24,0.104,27.778,0.15
						c4.269,0.024,8.353,0.046,12.247,0.068c0.967-0.013,1.949,0.052,2.871-0.025c0.928-0.102,1.816-0.419,2.589-0.899
						c1.554-0.959,2.613-2.555,2.976-4.242c0.197-0.844,0.167-1.705,0.175-2.56c0.005-0.852,0.009-1.692,0.014-2.52
						c0.014-0.823-0.034-1.649,0.12-2.454c0.141-0.8,0.416-1.563,0.802-2.25c0.764-1.381,1.998-2.422,3.368-2.954
						c1.383-0.595,2.852-0.407,4.181-0.43c5.4,0.035,9.97,0.064,13.665,0.088c3.69,0.028,6.505,0.05,8.403,0.065
						C301.858,61.082,302.828,61.105,302.828,61.105s-0.97,0.013-2.863,0.013c-1.898-0.003-4.713-0.007-8.403-0.013
						c-3.695-0.01-8.265-0.023-13.665-0.038c-1.343,0.026-2.782-0.153-4.119,0.43c-1.333,0.522-2.533,1.538-3.273,2.886
						c-0.374,0.67-0.64,1.413-0.775,2.193c-0.148,0.778-0.1,1.594-0.111,2.424c-0.003,0.827-0.005,1.667-0.008,2.52
						c-0.007,0.846,0.027,1.73-0.174,2.603c-0.37,1.737-1.456,3.386-3.061,4.381c-0.797,0.498-1.717,0.828-2.678,0.936
						c-0.972,0.082-1.917,0.017-2.896,0.032c-3.894-0.014-7.978-0.03-12.247-0.045c-8.537-0.033-17.812-0.069-27.778-0.107
						c-2.492-0.01-5.026-0.02-7.603-0.03c-0.644-0.003-1.291-0.005-1.941-0.008c-0.644,0.012-1.331-0.036-1.977-0.202
						c-1.3-0.325-2.506-1.073-3.384-2.113c-0.895-1.026-1.47-2.338-1.642-3.707c-0.091-0.691-0.063-1.376-0.063-2.053
						c0.003-0.681,0.005-1.364,0.008-2.05c-0.012-1.374,0.115-2.764-0.396-4.044c-0.443-1.287-1.311-2.428-2.437-3.22
						c-1.137-0.792-2.521-1.17-3.941-1.107c-1.433-0.006-2.876-0.012-4.328-0.018c-2.905-0.012-5.85-0.024-8.834-0.036
						c-5.968-0.025-12.091-0.05-18.363-0.076c-3.117-0.046-6.291,0.406-9.21,1.71c-2.914,1.276-5.565,3.233-7.681,5.704
						c-2.1,2.485-3.605,5.507-4.371,8.737c-0.217,0.802-0.281,1.639-0.431,2.459c-0.047,0.835-0.11,1.666-0.124,2.511
						c-0.007,1.695-0.013,3.398-0.02,5.11c-0.053,13.696-0.108,27.943-0.165,42.696c-0.117,29.506-0.242,61.033-0.374,94.211
						c-0.135,33.178-0.278,68.007-0.425,104.114c-0.075,18.054-0.151,36.427-0.229,55.074c-0.039,9.323-0.078,18.715-0.118,28.17
						c-0.01,2.364-0.02,4.731-0.03,7.102c-0.008,2.361,0.114,4.716,0.829,6.973c1.327,4.503,4.193,8.569,8.088,11.265
						c3.896,2.715,8.652,3.962,13.388,3.744c4.756,0.022,9.497,0.044,14.223,0.066c9.451,0.044,18.84,0.088,28.161,0.131
						c18.641,0.087,37.01,0.173,55.059,0.258c9.025,0.043,17.97,0.085,26.829,0.127c2.215,0.01,4.424,0.021,6.628,0.032l3.302,0.016
						c1.1,0.008,2.2,0.023,3.277-0.049c4.338-0.194,8.527-1.886,11.88-4.552c1.657-1.364,3.106-2.962,4.3-4.73
						c1.199-1.77,2.047-3.748,2.648-5.778c0.639-2.036,0.781-4.161,0.815-6.281c0.009-2.135,0.019-4.265,0.028-6.388
						c0.037-8.494,0.074-16.89,0.111-25.183c0.301-66.345,0.573-126.096,0.801-176.277c0.247-50.178,0.447-90.786,0.585-118.856
						c0.019-3.508,0.037-6.82,0.054-9.93c0.049-3.104-0.489-6.001-1.505-8.496c-1.002-2.501-2.412-4.594-3.936-6.274
						c-1.529-1.676-3.149-2.993-4.745-3.911c-3.16-1.921-5.983-2.556-7.842-2.801c-0.929-0.189-1.653-0.145-2.128-0.202
						C303.07,61.127,302.828,61.105,302.828,61.105z"/>
				</g>
			</g>
		</g>
	</g>
</g>
<g id="Character">
	<g>
		<g>
			<path style="fill:#263238;" d="M365.366,259.786c14.81,0.373,29.78,0.768,44.101,4.561c14.321,3.793,28.15,11.362,36.646,23.499
				c9.355,13.362,11.213,30.444,12.151,46.729c1.555,27.01,1.377,54.149-1.273,81.074c-1.343,13.647-6.18,26.32-18.871,31.515
				c-15.264,6.25-35.772,0-35.772,0"/>
			<g>
				<path style="fill:#455A64;" d="M405.089,443.913c0,0,0.19-0.018,0.561-0.027c0.391-0.006,0.939-0.015,1.647-0.026
					c1.469-0.011,3.599-0.028,6.332-0.049c2.749-0.018,6.118,0.017,9.977-0.524c0.96-0.157,1.963-0.271,2.971-0.527
					c0.507-0.113,1.022-0.227,1.545-0.344c0.517-0.137,1.035-0.302,1.565-0.456c1.069-0.278,2.112-0.728,3.204-1.127
					c1.052-0.492,2.159-0.948,3.2-1.589c2.116-1.206,4.191-2.757,5.947-4.756c1.754-1.99,3.169-4.439,3.916-7.196
					c1.423-5.579,2.022-11.754,2.245-18.233c0.205-6.487,0.132-13.315,0.19-20.388c0.032-7.074,0.065-14.397,0.1-21.898
					c0.032-7.504,0.109-14.828-0.134-21.892c-0.246-7.061-0.799-13.868-1.91-20.261c-2.16-12.79-6.638-23.882-12.412-31.818
					c-2.875-3.972-6.02-7.139-8.842-9.823c-2.846-2.668-5.408-4.848-7.51-6.618c-2.098-1.751-3.733-3.116-4.86-4.057
					c-0.54-0.458-0.958-0.812-1.256-1.065c-0.281-0.242-0.417-0.377-0.417-0.377s0.158,0.107,0.45,0.336
					c0.306,0.243,0.735,0.584,1.289,1.025c1.142,0.924,2.798,2.263,4.923,3.983c2.123,1.748,4.706,3.908,7.579,6.562
					c2.848,2.672,6.025,5.832,8.941,9.82c5.852,7.962,10.391,19.111,12.586,31.953c1.129,6.42,1.694,13.249,1.947,20.325
					c0.25,7.079,0.176,14.41,0.145,21.913c-0.038,7.501-0.075,14.824-0.11,21.898c-0.065,7.073-0.002,13.895-0.22,20.402
					c-0.238,6.5-0.852,12.697-2.308,18.328c-0.775,2.827-2.235,5.327-4.032,7.35c-1.799,2.032-3.915,3.597-6.066,4.81
					c-1.059,0.644-2.181,1.1-3.248,1.592c-1.106,0.398-2.163,0.846-3.243,1.121c-0.535,0.152-1.059,0.315-1.581,0.45
					c-0.528,0.114-1.047,0.226-1.559,0.337c-1.018,0.25-2.028,0.359-2.996,0.51c-3.887,0.517-7.274,0.452-10.017,0.439
					c-2.734-0.021-4.864-0.038-6.332-0.049c-0.708-0.011-1.256-0.02-1.647-0.026C405.279,443.931,405.089,443.913,405.089,443.913z"
					/>
			</g>
			<g>
				<path style="fill:#455A64;" d="M448.708,370.65c-0.035-0.129,2.262-0.798,5.193-0.93c2.931-0.145,5.281,0.306,5.258,0.437
					c-0.018,0.153-2.356-0.06-5.233,0.083C451.049,370.369,448.74,370.801,448.708,370.65z"/>
			</g>
			<g>
				<path style="fill:#E0E0E0;" d="M384.716,260.564c0-0.009,0.13-0.012,0.384-0.011c0.28,0.005,0.653,0.012,1.128,0.021
					c0.991,0.039,2.459,0.034,4.34,0.164c3.744,0.385,9.205,1.107,15.599,3.329c0.792,0.294,1.603,0.594,2.431,0.902
					c0.414,0.155,0.833,0.311,1.256,0.469c0.411,0.186,0.827,0.375,1.247,0.565c0.84,0.381,1.697,0.769,2.569,1.165
					c0.876,0.391,1.714,0.896,2.596,1.352c3.521,1.84,7.081,4.186,10.604,6.928c3.523,2.743,7.002,5.922,10.198,9.593
					c3.203,3.657,6.069,7.876,8.251,12.554c4.458,9.347,6.395,19.133,7.38,27.976c0.943,8.88,0.983,16.923,1.035,23.657
					c0.025,6.738,0.044,12.188,0.138,15.953c0.052,1.859,0.093,3.315,0.121,4.335c0.013,0.475,0.023,0.848,0.03,1.128
					c0.004,0.254,0.001,0.385-0.007,0.385c-0.009,0-0.024-0.129-0.046-0.383c-0.02-0.279-0.047-0.652-0.082-1.126
					c-0.07-0.99-0.145-2.451-0.219-4.334c-0.156-3.766-0.232-9.22-0.304-15.956c-0.099-6.731-0.178-14.764-1.144-23.608
					c-1.008-8.808-2.952-18.535-7.373-27.803c-2.168-4.645-4.991-8.806-8.166-12.444c-3.166-3.648-6.617-6.815-10.109-9.55
					c-3.494-2.735-7.022-5.08-10.514-6.926c-0.875-0.457-1.706-0.965-2.574-1.357c-0.865-0.398-1.715-0.789-2.548-1.172
					c-0.416-0.192-0.828-0.382-1.236-0.569c-0.419-0.16-0.835-0.318-1.245-0.474c-0.822-0.311-1.626-0.616-2.412-0.913
					c-6.344-2.254-11.769-3.028-15.496-3.474c-1.872-0.16-3.336-0.188-4.324-0.261c-0.474-0.03-0.847-0.054-1.126-0.072
					C384.846,260.587,384.716,260.573,384.716,260.564z"/>
			</g>
			<g>
				<path style="fill:#263238;" d="M375.457,260.529c0,0,3.633-9.59,16.562-7.774c0,0,5.764-0.317,6.807,2.885
					c0,0-12.043-2.992-17.172,5.343L375.457,260.529z"/>
				<path style="fill:#455A64;" d="M412.309,272.213h-7.573c0,0-1.469-20.029-19.828-19.254
					C384.908,252.959,407.729,245.32,412.309,272.213z"/>
			</g>
			<g>
				<polygon style="fill:#455A64;" points="448.821,382.865 459.675,384.375 458.594,388.234 448.458,387.453 				"/>
				<g>
					<path style="fill:#E8505B;" d="M449.48,386.364c-0.065-0.051,0.433-0.806,1.271-1.95l0.151-0.207l0.17,0.207
						c0.482,0.586,0.987,1.2,1.515,1.843l-0.349-0.048c0.352-0.26,0.713-0.528,1.086-0.804c0.385-0.279,0.757-0.549,1.121-0.813
						l0.208-0.151l0.145,0.204c0.487,0.685,0.949,1.335,1.392,1.959l-0.281-0.044c1.157-0.772,1.913-1.225,1.96-1.158
						c0.048,0.066-0.622,0.638-1.724,1.487l-0.154,0.119l-0.126-0.163c-0.47-0.605-0.959-1.235-1.474-1.898l0.353,0.053
						c-0.362,0.268-0.731,0.541-1.113,0.824c-0.376,0.272-0.74,0.536-1.094,0.793l-0.203,0.147l-0.147-0.195
						c-0.502-0.664-0.98-1.298-1.438-1.904l0.321,0C450.159,385.752,449.545,386.415,449.48,386.364z"/>
				</g>
			</g>
		</g>
		<g>
			<path style="fill:#E8505B;" d="M290.984,454.337c0,0-2.104-6.839-1.683-9.732c0.422-2.894,4.313-5.524,4.313-5.524l-4.22-109.655
				c0,0-0.547-47.96,24.837-62.868l15.15-3.817l37.372-2.212c1.209,0.403,45.126,16.922,51.17,23.369l-18.937,96.698
				c0,0,2.301,28.574,4.599,49.107c0.47,4.195,3.616,24.933,3.616,24.933L290.984,454.337z"/>
			<g style="opacity:0.3;">
				<path d="M402.888,423.246c-0.353,2.667-1.366,5.916-3.927,6.742c-2.561,0.826-5.34,0.587-7.989,0.115
					c-9.365-1.668-17.987-6.069-26.449-10.416c-15.816-8.124-31.777-16.342-45.431-27.732c-1.919-1.601-3.97-4.1-2.795-6.305
					c1.333-2.5,5.079-1.661,7.652-0.475C350.772,397.54,376.067,410.881,402.888,423.246"/>
			</g>
			<path style="fill:#E8505B;" d="M308.56,269.546c0,0-16.727,5.582-22.136,21.079c-5.977,17.124-9.943,50.364-9.943,50.364
				l16.528,2.077L308.56,269.546z"/>
			<path style="fill:#E8505B;" d="M417.922,283.897c0,0,8.974,11.799,13.339,26.14c4.365,14.341,6.859,55.896,6.859,55.896
				l-44.997-0.626l-2.392-36.564C390.732,328.744,386.189,267.734,417.922,283.897z"/>
			<g>
				<path style="fill:#FAFAFA;" d="M282.384,305.564c0,0,0.327-0.508,1.242-1.174c0.897-0.645,2.592-1.329,4.735-0.908
					c2.181,0.323,4.297,2.034,7.087,3.098c1.38,0.533,2.995,0.945,4.636,0.574c1.646-0.359,3.073-1.536,4.576-2.681
					c0.76-0.571,1.558-1.164,2.504-1.57c0.929-0.419,2.084-0.556,3.108-0.134c1.045,0.382,1.819,1.26,2.418,2.157
					c0.618,0.904,1.118,1.886,1.768,2.766c0.635,0.883,1.473,1.65,2.538,1.962c1.049,0.346,2.228,0.264,3.344-0.027
					c1.125-0.289,2.216-0.794,3.255-1.404c1.035-0.61,2.04-1.357,3.115-2.02c1.07-0.671,2.211-1.301,3.478-1.69
					c1.26-0.373,2.685-0.464,3.985-0.009c1.305,0.427,2.44,1.233,3.462,2.112c1.033,0.875,1.994,1.833,3.056,2.661
					c1.052,0.829,2.232,1.546,3.56,1.745c1.311,0.256,2.699,0.074,3.99-0.413c2.602-0.978,4.897-2.744,7.453-4.154
					c1.282-0.694,2.615-1.352,4.072-1.625c1.444-0.275,2.976-0.181,4.337,0.341c2.727,1.063,4.746,3.124,7.167,4.277
					c0.597,0.303,1.227,0.511,1.861,0.665c0.639,0.134,1.293,0.159,1.938,0.123c1.298-0.089,2.549-0.525,3.726-1.067
					c2.37-1.07,4.514-2.569,6.96-3.374c1.213-0.399,2.523-0.582,3.779-0.339c1.266,0.215,2.373,0.91,3.289,1.682
					c1.836,1.535,3.279,3.48,5.378,4.134c1.026,0.324,2.117,0.299,3.15,0.09c1.038-0.206,2.031-0.561,3.009-0.902
					c1.929-0.676,3.952-1.377,5.91-0.931c0.972,0.192,1.814,0.702,2.54,1.254c0.727,0.561,1.365,1.174,2.003,1.736
					c0.636,0.565,1.285,1.071,1.978,1.448c0.693,0.373,1.437,0.591,2.167,0.699c1.47,0.211,2.876-0.021,4.084-0.418
					c1.216-0.398,2.242-0.988,3.111-1.586c1.733-1.212,2.885-2.409,3.684-3.187c0.382-0.382,0.68-0.681,0.899-0.9
					c0.204-0.202,0.311-0.303,0.318-0.297c0.007,0.006-0.088,0.119-0.279,0.333c-0.21,0.229-0.496,0.539-0.863,0.937
					c-0.776,0.803-1.906,2.026-3.643,3.28c-0.869,0.617-1.907,1.233-3.147,1.655c-1.232,0.42-2.674,0.676-4.204,0.471
					c-0.761-0.105-1.541-0.326-2.272-0.712c-0.729-0.388-1.403-0.907-2.05-1.474c-1.29-1.096-2.574-2.505-4.406-2.88
					c-1.821-0.408-3.768,0.26-5.697,0.951c-0.977,0.345-1.982,0.712-3.061,0.932c-1.072,0.223-2.245,0.262-3.361-0.087
					c-1.121-0.34-2.086-1.05-2.958-1.818c-0.874-0.774-1.679-1.63-2.583-2.375c-0.895-0.746-1.918-1.379-3.086-1.574
					c-1.158-0.22-2.377-0.051-3.541,0.334c-2.347,0.775-4.486,2.27-6.902,3.371c-1.203,0.556-2.506,1.019-3.895,1.118
					c-0.689,0.04-1.395,0.013-2.083-0.13c-0.68-0.163-1.351-0.386-1.975-0.701c-2.523-1.211-4.543-3.257-7.129-4.252
					c-1.283-0.488-2.689-0.571-4.053-0.315c-1.372,0.255-2.665,0.889-3.923,1.571c-2.513,1.382-4.818,3.165-7.528,4.185
					c-1.346,0.507-2.844,0.711-4.261,0.432c-1.441-0.221-2.702-0.996-3.78-1.85c-2.166-1.692-3.904-3.894-6.356-4.702
					c-1.199-0.422-2.499-0.343-3.693,0.004c-1.198,0.365-2.309,0.969-3.364,1.629c-1.065,0.653-2.057,1.388-3.133,2.018
					c-1.07,0.623-2.196,1.142-3.378,1.442c-1.171,0.301-2.438,0.392-3.593,0.008c-1.172-0.347-2.099-1.212-2.751-2.131
					c-0.673-0.922-1.17-1.91-1.766-2.788c-0.581-0.877-1.291-1.673-2.218-2.016c-0.918-0.382-1.936-0.271-2.813,0.114
					c-0.888,0.375-1.675,0.946-2.432,1.509c-1.501,1.124-2.97,2.337-4.726,2.71c-1.744,0.378-3.415-0.073-4.813-0.627
					c-2.833-1.116-4.91-2.833-7.019-3.17c-2.082-0.44-3.736,0.19-4.639,0.796C282.766,305.103,282.412,305.593,282.384,305.564z"/>
			</g>
			<g>
				<path style="fill:#FAFAFA;" d="M277.082,332.6c0.001-0.009,0.151,0,0.442,0.026c0.315,0.032,0.743,0.075,1.292,0.131
					c1.136,0.07,2.817,0.546,4.919-0.126c1.06-0.233,2.252-0.445,3.55-0.667c1.296-0.227,2.698-0.544,4.239-0.725
					c1.532-0.182,3.249-0.183,4.945,0.357c1.699,0.501,3.348,1.37,5.166,1.98c1.811,0.636,3.859,0.714,5.885,0.17
					c2.039-0.481,4.04-1.418,6.205-2.169c2.129-0.767,4.601-1.356,7.05-0.683c2.422,0.681,4.372,2.466,6.799,3.06
					c0.602,0.143,1.221,0.185,1.84,0.129c0.62-0.069,1.236-0.233,1.844-0.441c1.219-0.424,2.398-1.043,3.692-1.491
					c1.267-0.47,2.781-0.67,4.144-0.14c1.355,0.519,2.401,1.505,3.499,2.322c0.55,0.411,1.121,0.791,1.74,1.052
					c0.616,0.262,1.285,0.372,1.96,0.369c1.36-0.051,2.686-0.59,3.98-1.19c1.299-0.597,2.615-1.269,4.078-1.637
					c0.736-0.156,1.503-0.256,2.272-0.155c0.768,0.088,1.505,0.356,2.178,0.708c1.352,0.713,2.468,1.703,3.657,2.513
					c0.594,0.405,1.209,0.766,1.859,1.018c0.326,0.122,0.655,0.235,0.999,0.28l0.51,0.09l0.519,0.018
					c1.391,0.034,2.762-0.372,4.079-0.853c1.324-0.48,2.621-1.043,3.979-1.449c1.345-0.403,2.81-0.656,4.214-0.303
					c1.422,0.304,2.575,1.217,3.552,2.135c0.984,0.929,1.876,1.912,2.924,2.642c1.038,0.738,2.288,1.076,3.515,1.001
					c1.233-0.077,2.411-0.533,3.518-1.068c1.111-0.54,2.166-1.172,3.233-1.763c2.102-1.164,4.413-2.243,6.802-1.967
					c2.366,0.278,4.298,1.587,6.002,2.812c1.719,1.238,3.285,2.55,5.021,3.363c1.715,0.846,3.516,1.282,5.238,1.423
					c1.728,0.106,3.36-0.067,4.856-0.376c2.975-0.719,5.331-2.039,6.987-3.408c1.67-1.374,2.634-2.773,3.254-3.72
					c0.284-0.491,0.469-0.885,0.613-1.14c0.138-0.257,0.214-0.388,0.222-0.384c0.008,0.004-0.051,0.141-0.174,0.407
					c-0.128,0.263-0.299,0.667-0.571,1.17c-0.595,0.972-1.543,2.406-3.214,3.823c-1.658,1.41-4.032,2.778-7.051,3.536
					c-1.518,0.329-3.179,0.519-4.945,0.423c-1.759-0.131-3.609-0.564-5.376-1.423c-1.793-0.83-3.379-2.148-5.094-3.368
					c-1.698-1.212-3.588-2.461-5.813-2.708c-2.234-0.253-4.447,0.771-6.534,1.937c-1.056,0.589-2.115,1.228-3.249,1.785
					c-1.13,0.55-2.36,1.037-3.694,1.125c-1.325,0.09-2.715-0.29-3.822-1.077c-1.114-0.774-2.02-1.775-2.987-2.682
					c-0.962-0.901-2.035-1.735-3.326-2.007c-1.277-0.322-2.647-0.093-3.954,0.301c-1.316,0.395-2.606,0.956-3.949,1.444
					c-1.336,0.488-2.762,0.921-4.266,0.887l-0.561-0.021l-0.557-0.097c-0.374-0.051-0.736-0.173-1.087-0.305
					c-0.704-0.273-1.352-0.656-1.964-1.073c-1.222-0.835-2.33-1.812-3.604-2.481c-0.634-0.332-1.307-0.574-2.001-0.653
					c-0.695-0.092-1.4-0.001-2.089,0.144c-1.379,0.345-2.671,0.998-3.983,1.602c-1.305,0.602-2.689,1.177-4.183,1.234
					c-0.742,0.005-1.493-0.121-2.171-0.411c-0.679-0.287-1.282-0.693-1.847-1.116c-1.123-0.845-2.144-1.792-3.371-2.259
					c-1.221-0.473-2.573-0.311-3.804,0.139c-1.245,0.426-2.43,1.045-3.693,1.483c-0.633,0.215-1.284,0.389-1.956,0.462
					c-0.673,0.06-1.354,0.011-1.999-0.144c-2.595-0.66-4.523-2.45-6.815-3.086c-2.298-0.641-4.669-0.103-6.783,0.65
					c-2.142,0.732-4.16,1.667-6.252,2.151c-2.069,0.551-4.248,0.457-6.096-0.211c-1.855-0.637-3.49-1.512-5.145-2.012
					c-1.646-0.536-3.301-0.549-4.818-0.384c-1.521,0.164-2.924,0.467-4.229,0.68c-1.305,0.209-2.49,0.404-3.551,0.621
					c-0.532,0.103-1.029,0.222-1.512,0.291c-0.486,0.071-0.947,0.045-1.363,0.007c-0.834-0.087-1.532-0.19-2.098-0.266
					c-0.547-0.077-0.973-0.138-1.286-0.182C277.228,332.636,277.081,332.609,277.082,332.6z"/>
			</g>
			<g>
				<path style="fill:#FAFAFA;" d="M293.73,356.182c0.001-0.009,0.102-0.005,0.298,0.011c0.225,0.022,0.511,0.051,0.869,0.086
					c0.763,0.084,1.885,0.231,3.327,0.447c2.885,0.398,7.028,1.255,12.205,1.683c2.591,0.218,5.428,0.198,8.47-0.152
					c1.524-0.139,3.132-0.278,4.788-0.04c0.824,0.121,1.655,0.346,2.438,0.718c0.785,0.372,1.492,0.885,2.175,1.418
					c1.361,1.051,2.653,2.324,4.316,2.827c0.822,0.259,1.704,0.213,2.557-0.019c0.856-0.241,1.683-0.646,2.536-1.039
					c0.855-0.386,1.747-0.796,2.749-0.924c0.993-0.158,2.071,0.093,2.922,0.633c1.726,1.05,2.858,2.799,4.622,3.544
					c1.77,0.774,3.768,0.29,5.579-0.246c1.836-0.544,3.664-1.262,5.617-1.304c0.966-0.009,1.949,0.168,2.813,0.583
					c0.867,0.407,1.616,0.976,2.31,1.564c1.382,1.173,2.601,2.478,4.122,3.177c1.514,0.734,3.226,0.519,4.737,0.012
					c1.537-0.481,2.952-1.228,4.493-1.577c1.508-0.336,3.13-0.375,4.473,0.332c0.66,0.353,1.202,0.908,1.525,1.546
					c0.326,0.636,0.491,1.295,0.7,1.901c0.201,0.609,0.463,1.168,0.862,1.601c0.395,0.436,0.902,0.741,1.433,0.924
					c1.075,0.363,2.204,0.269,3.164-0.018c0.971-0.297,1.762-0.839,2.373-1.463c0.62-0.615,1.076-1.282,1.445-1.901
					c0.727-1.251,1.12-2.317,1.408-3.025c0.132-0.334,0.237-0.602,0.319-0.812c0.074-0.182,0.115-0.274,0.124-0.271
					c0.008,0.003-0.017,0.101-0.074,0.289c-0.07,0.215-0.159,0.488-0.271,0.83c-0.258,0.721-0.62,1.803-1.331,3.09
					c-0.362,0.637-0.815,1.329-1.445,1.974c-0.615,0.652-1.449,1.243-2.462,1.566c-1.004,0.314-2.189,0.433-3.357,0.054
					c-0.578-0.192-1.141-0.52-1.585-1c-0.451-0.479-0.741-1.095-0.952-1.717c-0.219-0.622-0.389-1.264-0.693-1.842
					c-0.299-0.576-0.779-1.057-1.373-1.371c-1.206-0.628-2.742-0.6-4.187-0.265c-1.456,0.334-2.875,1.087-4.448,1.591
					c-0.784,0.26-1.619,0.458-2.49,0.496c-0.87,0.032-1.773-0.131-2.586-0.508c-1.642-0.753-2.885-2.093-4.245-3.234
					c-0.68-0.574-1.399-1.113-2.202-1.487c-0.799-0.381-1.688-0.538-2.59-0.53c-1.824,0.039-3.62,0.734-5.477,1.29
					c-0.933,0.278-1.894,0.535-2.901,0.635c-0.999,0.099-2.071,0.025-3.031-0.407c-1.952-0.85-3.087-2.63-4.685-3.579
					c-0.784-0.492-1.694-0.703-2.589-0.567c-0.899,0.111-1.756,0.495-2.602,0.877c-0.847,0.388-1.697,0.804-2.615,1.062
					c-0.915,0.25-1.925,0.3-2.83,0.01c-1.834-0.57-3.134-1.894-4.473-2.927c-0.67-0.527-1.349-1.021-2.082-1.372
					c-0.732-0.353-1.515-0.57-2.303-0.689c-1.582-0.236-3.162-0.113-4.681,0.018c-3.046,0.333-5.942,0.333-8.539,0.089
					c-5.208-0.478-9.334-1.391-12.208-1.85c-1.408-0.231-2.516-0.413-3.309-0.543c-0.355-0.056-0.639-0.102-0.862-0.137
					C293.827,356.212,293.728,356.191,293.73,356.182z"/>
			</g>
			<g>
				<path style="fill:#FAFAFA;" d="M292.333,422.872c-0.003-0.009,0.097-0.049,0.295-0.118c0.224-0.078,0.513-0.179,0.876-0.306
					c0.771-0.269,1.902-0.679,3.379-1.16c1.479-0.459,3.295-1.074,5.521-1.285c1.123-0.122,2.34,0.16,3.512,0.583
					c1.184,0.405,2.404,0.938,3.751,1.069c1.348,0.134,2.742-0.305,4.102-0.925c1.37-0.605,2.767-1.398,4.408-1.769
					c1.646-0.374,3.41-0.146,5.099,0.296c1.696,0.454,3.364,1.12,5.107,1.63c1.73,0.515,3.599,0.856,5.43,0.469
					c1.835-0.384,3.549-1.368,5.422-2.112c0.936-0.371,1.944-0.674,3.006-0.711c1.059-0.048,2.151,0.245,3.061,0.804
					c1.83,1.085,3.139,2.862,5.053,3.573c0.944,0.34,1.975,0.317,2.953,0.068c0.983-0.243,1.924-0.665,2.861-1.085
					c0.938-0.421,1.879-0.859,2.884-1.143c0.996-0.285,2.099-0.385,3.115-0.065c1.032,0.292,1.849,0.993,2.544,1.689
					c0.702,0.703,1.321,1.447,2.033,2.049c1.385,1.286,3.351,1.456,5.088,1.063c1.768-0.347,3.432-1.035,5.128-1.482
					c0.854-0.203,1.71-0.41,2.586-0.391c0.864-0.007,1.755,0.159,2.489,0.605c0.772,0.382,1.349,1.034,1.81,1.684
					c0.458,0.663,0.82,1.352,1.193,2.005c0.719,1.299,1.611,2.504,2.906,2.909c1.264,0.425,2.615,0.148,3.701-0.381
					c1.101-0.529,2.022-1.275,2.735-2.087c1.402-1.661,2.144-3.448,2.889-4.8c0.715-1.379,1.37-2.403,1.882-3.044
					c0.513-0.641,0.846-0.918,0.846-0.918c0.02,0.018-0.281,0.326-0.762,0.981c-0.48,0.656-1.1,1.685-1.785,3.073
					c-0.719,1.365-1.423,3.161-2.85,4.899c-0.727,0.848-1.666,1.629-2.811,2.194c-1.127,0.562-2.565,0.886-3.962,0.432
					c-1.432-0.436-2.407-1.756-3.136-3.058c-0.757-1.289-1.454-2.789-2.862-3.511c-1.364-0.811-3.121-0.579-4.75-0.149
					c-1.66,0.444-3.319,1.141-5.154,1.51c-0.909,0.193-1.883,0.283-2.85,0.107c-0.492-0.049-0.948-0.261-1.415-0.433
					c-0.448-0.223-0.858-0.512-1.237-0.829c-0.757-0.638-1.385-1.392-2.068-2.072c-0.678-0.676-1.429-1.306-2.337-1.557
					c-0.899-0.281-1.884-0.198-2.827,0.072c-0.949,0.268-1.871,0.696-2.81,1.119c-0.94,0.422-1.903,0.858-2.95,1.118
					c-1.037,0.267-2.199,0.299-3.254-0.083c-2.114-0.808-3.42-2.617-5.14-3.617c-0.848-0.519-1.81-0.774-2.781-0.735
					c-0.97,0.031-1.923,0.31-2.836,0.671c-1.828,0.717-3.564,1.719-5.508,2.124c-1.953,0.406-3.912,0.032-5.666-0.496
					c-1.773-0.527-3.43-1.197-5.09-1.649c-1.651-0.44-3.332-0.661-4.889-0.316c-1.557,0.34-2.944,1.108-4.337,1.715
					c-1.381,0.618-2.86,1.079-4.299,0.924c-1.428-0.153-2.66-0.713-3.826-1.123c-1.166-0.431-2.297-0.707-3.383-0.605
					c-2.171,0.178-3.999,0.76-5.48,1.188c-1.453,0.455-2.594,0.812-3.407,1.066c-0.37,0.107-0.665,0.191-0.893,0.257
					C292.441,422.858,292.336,422.88,292.333,422.872z"/>
			</g>
			<g>
				<path style="fill:#FAFAFA;" d="M348.507,398.103c0.009,0.016-0.186,0.14-0.568,0.365c-0.386,0.216-0.972,0.51-1.762,0.805
					c-1.566,0.587-4.033,1.147-7.052,0.726c-0.748-0.12-1.529-0.281-2.317-0.539c-0.791-0.254-1.578-0.613-2.378-0.949
					c-0.8-0.324-1.661-0.605-2.541-0.52c-0.883,0.079-1.724,0.52-2.514,1.08c-0.795,0.56-1.567,1.231-2.478,1.788
					c-0.455,0.278-0.957,0.51-1.497,0.656c-0.27,0.082-0.55,0.107-0.833,0.126c-0.283,0.043-0.563,0.008-0.846-0.018
					c-2.287-0.292-4.106-1.801-6.094-2.808c-0.988-0.514-2.05-0.913-3.083-0.79l-0.383,0.049c-0.124,0.029-0.243,0.083-0.364,0.123
					c-0.248,0.07-0.475,0.186-0.695,0.318c-0.433,0.278-0.815,0.641-1.173,1.026c-0.721,0.768-1.335,1.656-2.197,2.335
					c-0.427,0.335-0.939,0.601-1.493,0.686c-0.549,0.086-1.116-0.004-1.604-0.235c-0.98-0.483-1.575-1.337-2.116-2.098
					c-0.535-0.778-1.015-1.546-1.59-2.175c-1.158-1.246-2.818-1.759-4.253-1.694c-1.466,0.033-2.656,0.762-3.593,1.446
					c-0.938,0.702-1.63,1.462-2.079,2.151c-0.933,1.399-0.737,2.416-0.805,2.396c0,0-0.073-0.231-0.027-0.677
					c0.038-0.444,0.218-1.099,0.661-1.827c0.438-0.728,1.125-1.529,2.073-2.273c0.936-0.719,2.178-1.519,3.752-1.583
					c1.528-0.092,3.307,0.424,4.586,1.767c0.622,0.667,1.116,1.448,1.65,2.207c0.534,0.747,1.12,1.533,1.944,1.925
					c0.823,0.401,1.844,0.224,2.589-0.408c0.774-0.61,1.383-1.485,2.128-2.289c0.373-0.402,0.781-0.798,1.271-1.114
					c0.251-0.152,0.513-0.286,0.798-0.37c0.14-0.046,0.277-0.106,0.421-0.14l0.443-0.06c1.204-0.138,2.357,0.315,3.375,0.842
					c2.043,1.05,3.846,2.507,5.913,2.764c1.018,0.128,2.008-0.15,2.863-0.684c0.862-0.52,1.634-1.18,2.458-1.754
					c0.819-0.573,1.745-1.061,2.75-1.143c1.005-0.086,1.931,0.238,2.745,0.576c0.819,0.355,1.576,0.711,2.339,0.966
					c0.762,0.261,1.519,0.428,2.246,0.557c2.935,0.457,5.366-0.032,6.93-0.554C347.691,398.556,348.481,398.051,348.507,398.103z"/>
			</g>
			<g>
				<path style="fill:#FAFAFA;" d="M293.312,449.589c0.004-0.008,0.107,0.02,0.303,0.083c0.106,0.035,0.226,0.074,0.363,0.119
					c0.148,0.03,0.324,0.046,0.521,0.075c0.793,0.099,1.98-0.13,3.347-0.812c1.39-0.611,2.947-1.748,5.127-2.258
					c0.545-0.12,1.129-0.139,1.729-0.084c0.597,0.088,1.188,0.292,1.751,0.579c1.129,0.579,2.12,1.462,3.217,2.258
					c1.082,0.794,2.384,1.494,3.836,1.36c1.448-0.114,2.824-0.893,4.297-1.552c0.741-0.33,1.528-0.637,2.38-0.786
					c0.852-0.152,1.741-0.11,2.601,0.054c1.731,0.321,3.362,1.065,5.084,1.533c1.713,0.515,3.565,0.49,5.389,0.081
					c1.83-0.389,3.626-1.108,5.469-1.812c1.841-0.698,3.755-1.42,5.824-1.676c2.062-0.317,4.248,0.101,6.168,0.975
					c1.943,0.842,3.714,1.926,5.578,2.678c1.849,0.764,3.858,1.07,5.713,0.529c3.735-1.072,6.462-4.097,10.013-5.268
					c1.75-0.623,3.688-0.594,5.344-0.027c1.683,0.526,3.121,1.444,4.477,2.315c1.352,0.886,2.618,1.788,3.909,2.519
					c1.285,0.743,2.607,1.266,3.925,1.571c2.653,0.577,5.167,0.298,7.229-0.305c2.072-0.616,3.7-1.585,4.9-2.511
					c2.412-1.895,3.123-3.537,3.203-3.465c0.008,0.005-0.044,0.097-0.151,0.274c-0.126,0.2-0.287,0.457-0.49,0.781
					c-0.491,0.639-1.218,1.611-2.436,2.569c-1.198,0.964-2.838,1.976-4.941,2.631c-2.094,0.641-4.659,0.956-7.392,0.386
					c-1.356-0.301-2.733-0.835-4.044-1.581c-1.319-0.736-2.598-1.635-3.947-2.507c-1.35-0.857-2.768-1.747-4.379-2.24
					c-1.591-0.532-3.386-0.551-5.054,0.045c-1.685,0.562-3.232,1.598-4.819,2.628c-1.585,1.029-3.248,2.129-5.213,2.677
					c-1.97,0.582-4.142,0.247-6.04-0.541c-1.919-0.775-3.693-1.86-5.591-2.681c-1.883-0.852-3.913-1.238-5.898-0.939
					c-1.986,0.242-3.869,0.945-5.707,1.638c-1.838,0.698-3.657,1.424-5.546,1.822c-1.872,0.419-3.848,0.437-5.619-0.104
					c-1.771-0.491-3.386-1.233-5.042-1.545c-0.823-0.161-1.652-0.202-2.444-0.065c-0.792,0.135-1.549,0.422-2.279,0.742
					c-1.454,0.636-2.868,1.44-4.442,1.558c-1.592,0.135-2.997-0.649-4.083-1.463c-1.11-0.822-2.081-1.699-3.153-2.262
					c-0.534-0.279-1.086-0.475-1.641-0.565c-0.559-0.056-1.108-0.047-1.63,0.061c-2.095,0.457-3.684,1.564-5.098,2.156
					c-1.394,0.662-2.633,0.87-3.444,0.732c-0.201-0.039-0.38-0.064-0.529-0.103c-0.137-0.055-0.256-0.104-0.361-0.146
					C293.403,449.641,293.308,449.597,293.312,449.589z"/>
			</g>
			<g>
				<path style="fill:#FAFAFA;" d="M295.784,277.649c0.026-0.023,0.293,0.36,0.971,0.901c0.676,0.535,1.817,1.179,3.436,1.503
					c1.616,0.351,3.644,0.345,5.987,0.117c1.173-0.094,2.434-0.212,3.783-0.194c1.343,0.02,2.795,0.19,4.203,0.752
					c1.408,0.55,2.727,1.408,4.139,2.171c0.708,0.379,1.444,0.733,2.227,0.987c0.783,0.248,1.616,0.379,2.47,0.408
					c1.715,0.068,3.486-0.276,5.312-0.606c1.822-0.328,3.757-0.673,5.763-0.436c2.026,0.228,3.873,1.26,5.613,2.324
					c1.746,1.055,3.541,2.205,5.603,2.49c1.023,0.123,2.074,0.046,3.104-0.209c1.027-0.272,2.03-0.678,3.024-1.132
					c1.99-0.902,3.946-2.062,6.2-2.64c1.122-0.285,2.301-0.378,3.449-0.207c1.146,0.189,2.215,0.64,3.189,1.188
					c1.948,1.102,3.616,2.529,5.519,3.408c1.892,0.891,4.004,1.059,5.999,0.741c2.006-0.279,3.913-0.932,5.787-1.499
					c1.873-0.582,3.732-1.122,5.604-1.356c1.874-0.241,3.732-0.063,5.443,0.341c3.44,0.818,6.366,2.309,9.121,3.371
					c2.713,1.216,5.411,1.443,7.744,1.226c2.33-0.211,4.293-0.784,5.796-1.453c3.051-1.361,4.037-3.092,4.098-3
					c0,0-0.237,0.401-0.853,1.027c-0.603,0.638-1.651,1.439-3.161,2.158c-1.511,0.706-3.491,1.317-5.854,1.559
					c-1.18,0.126-2.459,0.126-3.8-0.033c-1.348-0.142-2.729-0.596-4.104-1.14c-2.779-1.048-5.71-2.512-9.083-3.293
					c-1.68-0.385-3.474-0.548-5.291-0.307c-1.82,0.236-3.65,0.772-5.517,1.36c-1.871,0.573-3.79,1.239-5.859,1.534
					c-2.048,0.334-4.294,0.166-6.285-0.771c-1.988-0.919-3.665-2.354-5.557-3.418c-0.944-0.53-1.954-0.951-3.018-1.126
					c-1.067-0.157-2.167-0.073-3.238,0.198c-2.152,0.549-4.096,1.692-6.111,2.606c-1.009,0.46-2.04,0.878-3.115,1.16
					c-1.079,0.267-2.203,0.351-3.299,0.216c-2.213-0.315-4.055-1.52-5.792-2.571c-1.737-1.069-3.503-2.052-5.414-2.273
					c-3.849-0.421-7.462,1.173-11.032,0.998c-0.887-0.035-1.762-0.177-2.582-0.443c-0.817-0.271-1.573-0.642-2.289-1.031
					c-1.429-0.785-2.725-1.64-4.084-2.182c-2.738-1.091-5.505-0.747-7.828-0.61c-2.346,0.202-4.42,0.179-6.052-0.209
					c-1.641-0.361-2.795-1.05-3.459-1.62C296.021,278.054,295.784,277.649,295.784,277.649z"/>
			</g>
			<g style="opacity:0.3;">
				<path d="M370.785,289.153l14.123,9.767c-4.485,11.129-0.335,26.577,3.557,39.22c1.514,4.918,6.522,10.043,6.278,15.182
					c-0.244,5.14,4.062,13.882-0.917,15.183c-3.302,0.862-6.887-0.262-9.633-2.289c-2.746-2.027-4.773-4.868-6.568-7.771
					C367.706,342.402,363.078,311.72,370.785,289.153z"/>
			</g>
			<g>
				<path style="fill:#263238;" d="M296.464,441.079c0.004-0.017,0.189,0.004,0.538,0.062c0.405,0.074,0.908,0.166,1.52,0.278
					c1.391,0.265,3.279,0.625,5.578,1.063c4.711,0.884,11.236,2.018,18.478,3.03c7.245,1.007,13.832,1.701,18.606,2.138
					c2.331,0.207,4.245,0.378,5.655,0.503c0.619,0.06,1.128,0.109,1.538,0.148c0.351,0.04,0.535,0.069,0.534,0.087
					c-0.001,0.018-0.187,0.023-0.54,0.018c-0.412-0.014-0.922-0.03-1.544-0.051c-1.341-0.052-3.279-0.165-5.673-0.338
					c-4.786-0.344-11.39-0.981-18.647-1.99c-7.254-1.013-13.779-2.206-18.477-3.184c-2.349-0.488-4.245-0.909-5.549-1.226
					c-0.604-0.151-1.1-0.274-1.5-0.374C296.638,441.153,296.46,441.096,296.464,441.079z"/>
			</g>
			<g>
				<path style="fill:#263238;" d="M318.437,438.473c0.005-0.017,0.292,0.045,0.831,0.178c0.543,0.117,1.323,0.375,2.359,0.572
					c2.052,0.473,5.072,0.975,8.831,1.137c3.756,0.17,8.262-0.113,13.112-1.209c4.845-1.086,10.009-3.067,14.89-6.077
					c4.85-3.063,8.898-6.833,12.003-10.71c3.116-3.877,5.349-7.801,6.845-11.25c1.505-3.448,2.38-6.382,2.857-8.433
					c0.278-1.017,0.389-1.831,0.522-2.37c0.117-0.543,0.187-0.828,0.205-0.825c0.018,0.003-0.018,0.293-0.101,0.843
					c-0.1,0.547-0.179,1.369-0.428,2.397c-0.418,2.073-1.243,5.041-2.717,8.534c-1.464,3.493-3.684,7.473-6.809,11.403
					c-3.113,3.93-7.196,7.754-12.101,10.852c-4.936,3.045-10.163,5.033-15.06,6.104c-4.903,1.081-9.452,1.327-13.234,1.109
					c-3.785-0.211-6.814-0.772-8.861-1.307c-1.034-0.228-1.807-0.518-2.342-0.668C318.707,438.585,318.431,438.49,318.437,438.473z"
					/>
			</g>
			<g>
				<path style="fill:#263238;" d="M327.301,262.694c0.018,0.001,0.025,0.249,0.021,0.721c-0.004,0.523-0.009,1.209-0.015,2.063
					c0.024,1.78-0.02,4.406,0.76,7.492c0.418,1.522,1.043,3.175,2.163,4.656c1.078,1.507,2.642,2.796,4.474,3.797
					c1.834,1.005,3.938,1.732,6.172,2.21c2.232,0.493,4.603,0.739,7.027,0.677c4.85-0.096,9.429-1.447,12.986-3.671
					c3.588-2.199,6.025-5.277,7.458-8.093c1.435-2.847,1.858-5.447,1.946-7.216c0.064-1.782-0.121-2.766-0.056-2.773
					c0.018-0.003,0.061,0.241,0.129,0.71c0.084,0.467,0.123,1.167,0.13,2.069c-0.026,1.793-0.399,4.451-1.819,7.374
					c-1.417,2.89-3.874,6.061-7.533,8.336c-3.621,2.296-8.293,3.687-13.228,3.785c-2.467,0.062-4.879-0.191-7.148-0.7
					c-2.271-0.493-4.415-1.244-6.294-2.288c-1.875-1.039-3.488-2.388-4.591-3.964c-1.146-1.548-1.767-3.259-2.171-4.819
					c-0.749-3.162-0.642-5.801-0.605-7.586c0.031-0.897,0.077-1.593,0.113-2.064C327.254,262.94,327.283,262.694,327.301,262.694z"
					/>
			</g>
		</g>
		<g>
			<path style="fill:#455A64;" d="M321.19,264.434c0,0-24.334,0.922-30.109,25.22c-6.689,28.143-2.653,59.17,5.757,74.708
				l0.395-27.679c0.274-19.208,4.899-38.105,13.525-55.269L321.19,264.434z"/>
			<g>
				<path style="fill:#263238;" d="M292.591,344.302c-0.018,0.001-0.039-0.291-0.062-0.847c-0.019-0.603-0.045-1.414-0.077-2.434
					c-0.038-1.057-0.061-2.351-0.014-3.853c0.037-1.502,0.027-3.215,0.171-5.101c0.057-0.945,0.117-1.935,0.179-2.964
					c0.067-1.03,0.2-2.097,0.303-3.205c0.185-2.218,0.546-4.569,0.893-7.047c0.797-4.939,1.912-10.334,3.461-15.899
					c1.588-5.556,3.457-10.74,5.359-15.368c0.999-2.294,1.92-4.487,2.922-6.475c0.491-0.998,0.935-1.977,1.416-2.891
					c0.485-0.91,0.951-1.785,1.396-2.621c0.864-1.684,1.767-3.139,2.52-4.438c0.745-1.305,1.441-2.396,2.026-3.277
					c0.56-0.852,1.006-1.53,1.337-2.034c0.31-0.462,0.481-0.699,0.496-0.689c0.015,0.01-0.126,0.267-0.408,0.746
					c-0.311,0.517-0.728,1.211-1.253,2.084c-0.557,0.897-1.227,2.001-1.946,3.317c-0.727,1.311-1.606,2.775-2.447,4.465
					c-0.435,0.839-0.889,1.716-1.362,2.629c-0.471,0.916-0.905,1.896-1.385,2.895c-0.982,1.99-1.885,4.182-2.868,6.473
					c-1.871,4.622-3.719,9.79-5.301,15.325c-1.543,5.544-2.668,10.915-3.488,15.833c-0.359,2.467-0.734,4.808-0.937,7.017
					c-0.112,1.103-0.255,2.165-0.332,3.192c-0.074,1.026-0.145,2.011-0.212,2.953c-0.167,1.88-0.183,3.588-0.247,5.086
					c-0.074,1.498-0.081,2.789-0.074,3.845c-0.009,1.019-0.016,1.83-0.021,2.432C292.624,344.009,292.609,344.301,292.591,344.302z"
					/>
			</g>
			<g>
				<path style="fill:#263238;" d="M303.722,270.588c0.016,0.009-0.085,0.233-0.292,0.652c-0.235,0.462-0.542,1.067-0.926,1.82
					c-0.832,1.564-1.952,3.873-3.262,6.754c-0.628,1.453-1.358,3.027-2.011,4.77c-0.334,0.868-0.708,1.755-1.042,2.688
					c-0.327,0.936-0.664,1.899-1.008,2.886c-1.318,3.969-2.561,8.403-3.52,13.135c-1.88,9.483-2.267,18.264-2.251,24.591
					c0.018,3.167,0.083,5.731,0.173,7.501c0.03,0.844,0.054,1.522,0.073,2.04c0.011,0.467,0.008,0.713-0.01,0.714
					c-0.018,0.001-0.05-0.242-0.095-0.707c-0.043-0.517-0.1-1.194-0.17-2.036c-0.152-1.768-0.273-4.335-0.339-7.509
					c-0.11-6.341,0.219-15.165,2.109-24.697c0.963-4.755,2.227-9.208,3.577-13.187c0.353-0.989,0.698-1.953,1.034-2.891
					c0.343-0.934,0.727-1.822,1.071-2.69c0.673-1.743,1.426-3.314,2.077-4.762c1.357-2.871,2.53-5.159,3.418-6.696
					c0.419-0.735,0.755-1.324,1.012-1.775C303.575,270.786,303.706,270.579,303.722,270.588z"/>
			</g>
		</g>
		<g>
			<path style="fill:#455A64;" d="M399.796,273.796c0,0-16.344,44.487-4.296,82.035l0.657,13.271c0,0-9.215-0.627-16.186-13.796
				c-6.971-13.169-9.229-26.759-11.592-46.344c-2.364-19.585,8.371-44.529,8.371-44.529S395.786,268.604,399.796,273.796z"/>
			<g>
				<path style="fill:#263238;" d="M396.586,368.016c-0.004,0.008-0.085-0.031-0.239-0.114c-0.179-0.101-0.402-0.226-0.678-0.382
					c-0.583-0.356-1.409-0.948-2.341-1.86c-1.88-1.81-3.908-5.129-5.179-9.607c-0.665-2.227-1.174-4.727-1.601-7.415
					c-0.468-2.684-0.847-5.572-1.192-8.616c-0.663-6.09-1.011-12.833-0.856-19.903c0.148-7.074,0.793-13.795,1.725-19.851
					c0.934-6.055,2.07-11.466,3.401-15.913c1.317-4.452,2.904-7.885,4.191-10.135c0.645-1.125,1.196-1.969,1.59-2.526
					c0.186-0.255,0.336-0.462,0.457-0.628c0.105-0.14,0.163-0.208,0.17-0.203c0.007,0.005-0.036,0.084-0.126,0.234
					c-0.109,0.173-0.245,0.389-0.413,0.655c-0.365,0.574-0.886,1.431-1.5,2.566c-1.225,2.269-2.75,5.699-4.015,10.141
					c-1.278,4.434-2.375,9.84-3.28,15.88c-0.903,6.042-1.531,12.741-1.679,19.791c-0.154,7.046,0.177,13.767,0.812,19.841
					c0.331,3.036,0.692,5.917,1.141,8.597c0.408,2.686,0.892,5.168,1.529,7.383c1.216,4.45,3.162,7.739,4.97,9.568
					C395.273,367.367,396.639,367.943,396.586,368.016z"/>
			</g>
			<g>
				<path style="fill:#263238;" d="M395.976,367.564c-0.003,0.008-0.094-0.023-0.269-0.092c-0.201-0.084-0.455-0.19-0.772-0.322
					c-0.656-0.329-1.628-0.827-2.748-1.67c-2.263-1.656-4.985-4.762-7.442-9.11c-2.37-4.38-5.09-9.692-7.159-15.965
					c-2.131-6.239-3.843-13.325-4.724-20.887c-0.89-7.564-0.865-14.854-0.262-21.419c0.548-6.581,1.885-12.397,3.161-17.208
					c0.714-2.389,1.306-4.566,2.038-6.409c0.688-1.857,1.227-3.475,1.83-4.734c0.554-1.245,0.99-2.226,1.304-2.931
					c0.144-0.31,0.259-0.559,0.351-0.756c0.082-0.169,0.128-0.254,0.136-0.25c0.008,0.004-0.022,0.096-0.087,0.272
					c-0.079,0.203-0.179,0.458-0.303,0.777c-0.292,0.713-0.697,1.705-1.212,2.964c-0.573,1.268-1.083,2.893-1.742,4.753
					c-0.704,1.846-1.269,4.024-1.958,6.41c-1.225,4.805-2.519,10.603-3.038,17.155c-0.574,6.537-0.584,13.789,0.302,21.315
					c0.876,7.524,2.565,14.576,4.661,20.792c2.033,6.251,4.707,11.556,7.025,15.938c2.403,4.344,5.046,7.444,7.246,9.132
					c1.089,0.858,2.035,1.379,2.671,1.737c0.306,0.151,0.551,0.271,0.746,0.367C395.895,367.508,395.979,367.556,395.976,367.564z"
					/>
			</g>
			<g>
				<polygon style="fill:#263238;" points="388.23,290.637 398.826,293.434 397.291,297.137 387.322,295.148 				"/>
				<g>
					<path style="fill:#E8505B;" d="M388.466,294.19c-0.059-0.059,0.526-0.748,1.495-1.784l0.175-0.187l0.144,0.225
						c0.409,0.64,0.836,1.309,1.284,2.011l-0.341-0.089c0.38-0.216,0.771-0.439,1.174-0.668c0.415-0.231,0.817-0.454,1.21-0.673
						l0.225-0.125l0.12,0.22c0.401,0.738,0.782,1.439,1.148,2.112l-0.273-0.077c1.241-0.628,2.045-0.987,2.085-0.915
						c0.039,0.072-0.694,0.559-1.889,1.27l-0.168,0.1l-0.106-0.177c-0.394-0.657-0.804-1.341-1.236-2.061l0.344,0.095
						c-0.391,0.222-0.791,0.45-1.204,0.685c-0.405,0.225-0.798,0.444-1.181,0.657l-0.219,0.122l-0.123-0.211
						c-0.419-0.72-0.818-1.406-1.2-2.062l0.319,0.038C389.214,293.664,388.524,294.249,388.466,294.19z"/>
				</g>
			</g>
		</g>
		<g>
			<g>
				<polygon style="fill:#455A64;" points="301.395,354.19 289.857,332.902 254.755,332.902 253.643,335.014 283.356,384.416 
					316.995,386.039 				"/>
				<path style="fill:#FFBE9D;" d="M435.236,365.934v37.206c0,6.791-3.052,13.223-8.314,17.517l0,0
					c-6.41,5.232-15.167,6.545-22.83,3.423l-81.919-36.306l8.024-27.325l65.904,21.723l-0.076-16.939L435.236,365.934z"/>
				<polygon style="fill:#263238;" points="300.283,356.302 288.744,335.014 253.643,335.014 282.244,386.528 315.882,388.151 				
					"/>
				<path style="fill:#FFBE9D;" d="M333.418,363.378l-5.553-6.89c-3.656-4.537-9.17-7.174-14.996-7.174h-4.849l-3.309,3.723
					c0,0-23.739,1.034-24.614,3.962l-0.021,0.945l-0.012,0.553l20.304,1.365c0,0-17.273-0.054-18.306-0.016
					c-1.137,0.042-4.82-0.289-4.745,1.737c0.062,1.666,2.033,2.98,5.019,3.416c1.228,0.18,16.189,1.48,16.189,1.48
					s-15.709-0.15-16.469-0.154c-1.846-0.009-1.612,2.951-0.515,3.322c0.867,0.293,21.96,6.448,21.96,6.448
					s-3.547,2.379-6.442,2.172c-2.895-0.207-7.859-3.93-8.893-2.172c-1.034,1.758-0.827,2.792-0.207,3.206
					c0.62,0.414,7.445,3.929,9.72,4.55c2.275,0.62,20.847,3.56,20.847,3.56l6.705,1.08L333.418,363.378z"/>
				<g>
					<path style="fill:#FFBE9D;" d="M258.548,343.316c0,0-3.672,1.28-1.803,5.997c2.735,6.904,7.449,11.793,7.449,11.793
						s-0.65,2.438,1.462,4.225c0,0-2.6,0.65-0.975,5.038c0,0-1.788,4.55,3.088,6.5c0,0-1.3,3.738,3.413,5.525
						c4.713,1.788,9.263-1.303,9.263-1.303L258.548,343.316z"/>
					<path style="fill:#FFBE9D;" d="M265.995,360.748c3.336,0.9,7.002,1.618,10.087,2.789c1.015,0.385,2.021,0.406,2.695,1.258
						c0.673,0.852,0.829,2.209,0.059,2.975c-0.678,0.675-1.764,0.662-2.714,0.547c-3.56-0.431-6.969-1.653-10.342-2.866"/>
					<path style="fill:#FFBE9D;" d="M267.326,366.316c3.336,0.9,7.002,1.618,10.087,2.79c1.015,0.385,2.022,0.405,2.695,1.258
						c0.673,0.852,0.829,2.209,0.059,2.975c-0.678,0.675-1.764,0.662-2.714,0.547c-3.559-0.431-6.969-1.652-10.342-2.866"/>
					<path style="fill:#FFBE9D;" d="M269.223,372.045c3.336,0.9,7.002,1.618,10.087,2.79c1.015,0.385,2.021,0.405,2.695,1.258
						c0.673,0.852,0.829,2.209,0.059,2.975c-0.678,0.675-1.764,0.662-2.714,0.547c-3.559-0.431-6.968-1.652-10.342-2.866"/>
					<g>
						<path style="fill:#EB996E;" d="M265.979,365.567c0.055-0.14,2.41,0.684,5.366,1.505c2.955,0.83,5.395,1.344,5.37,1.492
							c-0.02,0.135-2.524-0.153-5.51-0.991C268.218,366.744,265.926,365.693,265.979,365.567z"/>
					</g>
					<g>
						<path style="fill:#EB996E;" d="M265.359,370.481c0.052-0.14,2.749,0.754,6.105,1.734c3.356,0.988,6.107,1.692,6.076,1.838
							c-0.028,0.135-2.845-0.344-6.222-1.338C267.94,371.728,265.309,370.61,265.359,370.481z"/>
					</g>
					<g>
						<path style="fill:#EB996E;" d="M267.549,376.799c0.035-0.139,2.602,0.382,5.733,1.164c3.132,0.783,5.642,1.53,5.607,1.669
							c-0.035,0.139-2.601-0.382-5.733-1.164C270.024,377.686,267.514,376.938,267.549,376.799z"/>
					</g>
					<g>
						<path style="fill:#EB996E;" d="M263.221,360.067c0.053-0.143,3.008,0.858,6.725,1.814c3.716,0.967,6.785,1.524,6.762,1.675
							c-0.011,0.068-0.794,0.017-2.047-0.169c-1.253-0.186-2.973-0.518-4.845-1.001c-1.871-0.485-3.537-1.029-4.722-1.474
							C263.907,360.467,263.197,360.132,263.221,360.067z"/>
					</g>
				</g>
				<g>
					<path style="fill:#EB996E;" d="M296.63,353.322c-0.001-0.144,3.729-0.28,8.33-0.304c4.602-0.024,8.332,0.073,8.333,0.216
						c0.001,0.144-3.728,0.28-8.33,0.304C300.362,353.563,296.631,353.466,296.63,353.322z"/>
				</g>
				<path style="fill:#EBEBEB;" d="M271.462,343.952c0.76,0.609,1.869,0.486,2.478-0.273c0.609-0.76,0.486-1.869-0.273-2.478
					c-0.76-0.609-1.869-0.487-2.478,0.273C270.58,342.233,270.703,343.343,271.462,343.952z"/>
			</g>
			<g>
				<path style="fill:#EB996E;" d="M391.801,381.206c0.008-0.035,0.294-0.001,0.81,0.09c0.516,0.085,1.253,0.268,2.147,0.546
					c1.788,0.551,4.191,1.596,6.552,3.228c2.357,1.64,4.177,3.525,5.319,5.007c0.574,0.74,1.003,1.366,1.263,1.82
					c0.266,0.45,0.398,0.707,0.368,0.727c-0.074,0.048-0.712-0.911-1.916-2.312c-1.199-1.402-3.021-3.205-5.331-4.813
					c-2.315-1.6-4.641-2.676-6.374-3.308C392.904,381.555,391.781,381.293,391.801,381.206z"/>
			</g>
		</g>
		<g>
			<g>
				<g>
					<g>
						<g>
							<g>
								<g>
									<g>
										<g>
											<g>
												<path style="fill:#FFBE9D;" d="M347.109,282.637L347.109,282.637c-10.807-0.863-18.973-10.161-18.434-20.989
													c0.378-7.598,0.77-14.451,0.77-14.451s-16.291-2.533-16.492-18.821c-0.201-16.288,2.623-53.69,2.623-53.69l0,0
													c18.855-8.103,40.619-5.368,56.882,7.15l2.414,1.858l-6.17,80.485C367.853,275.247,358.175,283.52,347.109,282.637z"/>
											</g>
										</g>
									</g>
								</g>
								<g>
									<g>
										<g>
											<g>
												<path style="fill:#EB996E;" d="M329.419,246.962c0,0,10.294,0.837,21.235-6.035c0,0-5.019,11.722-21.273,10.255
													L329.419,246.962z"/>
											</g>
										</g>
									</g>
								</g>
							</g>
						</g>
					</g>
					<g>
						<g>
							<g>
								<g>
									<g>
										<g>
											<g>
												<g>
													<g>
														<g>
															<path style="fill:#263238;" d="M319.596,200.214c-0.043,1.228,0.961,2.278,2.243,2.347
																c1.28,0.069,2.354-0.869,2.398-2.097c0.043-1.228-0.961-2.28-2.24-2.348
																C320.715,198.046,319.64,198.986,319.596,200.214z"/>
														</g>
													</g>
												</g>
											</g>
											<g>
												<g>
													<g>
														<g>
															<g>
																<path style="fill:#263238;" d="M318.659,197.598c0.288,0.303,2.051-1.001,4.554-0.994
																	c2.5-0.029,4.337,1.258,4.609,0.952c0.134-0.136-0.16-0.683-0.96-1.266c-0.787-0.58-2.13-1.144-3.69-1.137
																	c-1.559,0.009-2.87,0.582-3.624,1.17C318.777,196.914,318.517,197.463,318.659,197.598z"/>
															</g>
														</g>
													</g>
												</g>
											</g>
										</g>
										<g>
											<g>
												<g>
													<g>
														<g>
															<path style="fill:#263238;" d="M343.2,200.801c-0.043,1.228,0.961,2.278,2.243,2.347
																c1.28,0.069,2.354-0.869,2.398-2.097c0.043-1.228-0.961-2.279-2.241-2.348
																C344.318,198.634,343.243,199.573,343.2,200.801z"/>
														</g>
													</g>
												</g>
											</g>
											<g>
												<g>
													<g>
														<g>
															<g>
																<path style="fill:#263238;" d="M343.263,198.065c0.289,0.303,2.053-1,4.555-0.994
																	c2.5-0.029,4.337,1.259,4.609,0.952c0.133-0.135-0.158-0.683-0.961-1.265c-0.787-0.58-2.13-1.144-3.689-1.138
																	c-1.559,0.009-2.871,0.583-3.625,1.17C343.384,197.381,343.122,197.93,343.263,198.065z"/>
															</g>
														</g>
													</g>
												</g>
											</g>
										</g>
										<g>
											<g>
												<g>
													<g>
														<g>
															<path style="fill:#263238;" d="M334.179,216.628c0.012-0.142-1.544-0.411-4.066-0.733
																c-0.639-0.066-1.244-0.193-1.352-0.629c-0.151-0.462,0.117-1.151,0.427-1.894c0.601-1.547,1.23-3.168,1.89-4.867
																c2.625-6.93,4.525-12.628,4.245-12.731c-0.28-0.103-2.635,5.43-5.26,12.359c-0.632,1.709-1.236,3.338-1.811,4.896
																c-0.242,0.726-0.658,1.55-0.332,2.508c0.172,0.478,0.641,0.824,1.051,0.935c0.41,0.125,0.769,0.132,1.085,0.151
																C332.595,216.76,334.169,216.771,334.179,216.628z"/>
														</g>
													</g>
												</g>
											</g>
										</g>
										<g>
											<g>
												<g>
													<g>
														<g>
															<path style="fill:#263238;" d="M341.545,218.36c-0.407-0.024-0.412,2.693-2.738,4.622
																c-2.321,1.935-5.218,1.63-5.239,2.009c-0.038,0.17,0.645,0.528,1.867,0.561c1.199,0.041,2.95-0.344,4.373-1.524
																c1.419-1.183,2.029-2.76,2.121-3.875C342.034,219.018,341.731,218.344,341.545,218.36z"/>
														</g>
													</g>
												</g>
											</g>
										</g>
									</g>
								</g>
							</g>
							<g>
								<g>
									<g>
										<g>
											<path style="fill:#263238;" d="M342.617,188.256c0.247,0.681,2.746,0.358,5.683,0.712
												c2.944,0.295,5.313,1.155,5.702,0.544c0.174-0.292-0.239-0.932-1.197-1.591c-0.949-0.658-2.464-1.283-4.226-1.48
												c-1.763-0.192-3.377,0.087-4.447,0.522C343.053,187.398,342.511,187.933,342.617,188.256z"/>
										</g>
									</g>
								</g>
							</g>
							<g>
								<g>
									<g>
										<g>
											<path style="fill:#263238;" d="M319.579,190.354c0.44,0.568,2.164-0.022,4.238-0.049
												c2.073-0.101,3.829,0.382,4.233-0.213c0.177-0.289-0.099-0.858-0.867-1.396c-0.756-0.536-2.02-0.975-3.445-0.932
												c-1.424,0.045-2.659,0.56-3.381,1.143C319.625,189.491,319.385,190.077,319.579,190.354z"/>
										</g>
									</g>
								</g>
							</g>
						</g>
					</g>
				</g>
			</g>
			<g>
				<g>
					<g>
						<g>
							<g>
								<path style="fill:#FFBE9D;" d="M372.865,200.565c0.277-0.12,11.192-3.31,10.836,7.826
									c-0.356,11.135-11.462,8.482-11.472,8.162C372.22,216.232,372.865,200.565,372.865,200.565z"/>
							</g>
						</g>
					</g>
				</g>
				<g>
					<g>
						<g>
							<g>
								<g>
									<path style="fill:#EB996E;" d="M375.766,212.442c0.05-0.034,0.19,0.142,0.513,0.303c0.315,0.156,0.862,0.275,1.449,0.076
										c1.19-0.394,2.241-2.23,2.359-4.235c0.061-1.013-0.121-1.985-0.454-2.795c-0.314-0.826-0.823-1.411-1.411-1.536
										c-0.585-0.155-1.016,0.186-1.162,0.495c-0.159,0.307-0.096,0.531-0.155,0.548c-0.032,0.027-0.233-0.194-0.129-0.651
										c0.053-0.219,0.192-0.478,0.46-0.684c0.274-0.209,0.671-0.307,1.082-0.249c0.857,0.087,1.604,0.902,1.971,1.791
										c0.414,0.895,0.642,1.988,0.573,3.125c-0.143,2.242-1.359,4.305-2.983,4.719c-0.79,0.179-1.436-0.078-1.765-0.352
										C375.777,212.712,375.727,212.461,375.766,212.442z"/>
								</g>
							</g>
						</g>
					</g>
				</g>
			</g>
			<g>
				<path style="fill:#263238;" d="M309.341,160.613c2.365-4.672,6.971-8.145,12.114-9.134c5.143-0.989,10.708,0.528,14.638,3.99
					c2.463-4.904,7.457-8.449,12.9-9.155c5.442-0.706,11.176,1.446,14.809,5.56c3.123,3.536,4.739,8.344,8.398,11.322
					c3.166,2.577,7.459,3.434,10.643,5.989c3.505,2.813,5.252,7.653,4.35,12.056c-0.901,4.403-4.41,8.167-8.738,9.376
					c3.493,6.3,0.218,15.337-6.499,17.938l-1.624-0.673c-6.162-6.765-7.57-17.441-3.372-25.572c-0.2,0.01-0.388-0.021-0.584-0.026
					c-2.145,1.17-4.612,1.757-7.053,1.614c-3.894-0.228-7.64-2.305-9.896-5.488c-4.447,3.208-10.819,3.476-15.52,0.653
					c-0.741-0.445-1.48-0.973-2.339-1.064c-1.024-0.109-1.992,0.42-2.916,0.874c-2.444,1.199-5.19,1.983-7.884,1.592
					c-2.513-0.365-4.927-1.927-5.92-4.237c-0.062-0.009-0.123-0.01-0.185-0.022c-3.139-0.567-5.657-3.246-6.521-6.317
					C307.277,166.816,307.9,163.459,309.341,160.613z"/>
			</g>
		</g>
	</g>
</g>
</svg>
